<svg width="132" height="33" viewBox="0 0 132 33" fill="none" xmlns="http://www.w3.org/2000/svg">
<path d="M117.069 30.5225C114.523 30.5225 112.174 29.932 110.022 28.751C107.897 27.5438 106.204 25.8772 104.944 23.7514C103.71 21.5993 103.094 19.1848 103.094 16.5079C103.094 13.8309 103.71 11.4295 104.944 9.30368C106.204 7.17785 107.897 5.52443 110.022 4.34342C112.174 3.13616 114.523 2.53253 117.069 2.53253C119.641 2.53253 121.99 3.13616 124.116 4.34342C126.268 5.52443 127.961 7.17785 129.194 9.30368C130.428 11.4295 131.044 13.8309 131.044 16.5079C131.044 19.1848 130.428 21.5993 129.194 23.7514C127.961 25.8772 126.268 27.5438 124.116 28.751C121.99 29.932 119.641 30.5225 117.069 30.5225ZM117.069 26.6252C118.88 26.6252 120.494 26.2184 121.911 25.4048C123.328 24.565 124.431 23.384 125.218 21.8618C126.032 20.3133 126.438 18.5287 126.438 16.5079C126.438 14.487 126.032 12.7155 125.218 11.1933C124.431 9.6711 123.328 8.50321 121.911 7.68962C120.494 6.87604 118.88 6.46924 117.069 6.46924C115.258 6.46924 113.644 6.87604 112.227 7.68962C110.81 8.50321 109.694 9.6711 108.881 11.1933C108.093 12.7155 107.7 14.487 107.7 16.5079C107.7 18.5287 108.093 20.3133 108.881 21.8618C109.694 23.384 110.81 24.565 112.227 25.4048C113.644 26.2184 115.258 26.6252 117.069 26.6252Z" fill="white"/>
<path d="M93.9225 30.2472L87.6237 19.3031H84.1988V30.2472H79.7109V2.88702H89.159C91.2586 2.88702 93.0301 3.25445 94.4736 3.9893C95.9433 4.72416 97.0325 5.70833 97.7411 6.94184C98.4759 8.17534 98.8434 9.55319 98.8434 11.0754C98.8434 12.86 98.3185 14.4872 97.2687 15.9569C96.2451 17.4004 94.6573 18.3845 92.5052 18.9094L99.2764 30.2472H93.9225ZM84.1988 15.7207H89.159C90.8387 15.7207 92.0985 15.3008 92.9383 14.461C93.8044 13.6211 94.2374 12.4926 94.2374 11.0754C94.2374 9.65817 93.8175 8.55589 92.9777 7.76855C92.1378 6.95496 90.865 6.54816 89.159 6.54816H84.1988V15.7207Z" fill="white"/>
<path d="M75.4293 11.0361C75.4293 12.427 75.1012 13.7393 74.4451 14.9728C73.789 16.2063 72.7392 17.2167 71.2957 18.0041C69.8523 18.7652 68.002 19.1457 65.745 19.1457H60.7847V30.2472H56.2969V2.88708H65.745C67.8446 2.88708 69.6161 3.25451 71.0595 3.98936C72.5292 4.69797 73.6184 5.66903 74.327 6.90253C75.0619 8.13603 75.4293 9.51388 75.4293 11.0361ZM65.745 15.4846C67.4509 15.4846 68.7238 15.104 69.5636 14.3429C70.4034 13.5556 70.8233 12.4533 70.8233 11.0361C70.8233 8.04418 69.1306 6.54823 65.745 6.54823H60.7847V15.4846H65.745Z" fill="white"/>
<path d="M46.1446 16.1932C47.6143 16.4556 48.8609 17.2298 49.8844 18.5158C50.908 19.8018 51.4198 21.2584 51.4198 22.8856C51.4198 24.2765 51.0523 25.5363 50.3175 26.6648C49.6089 27.7671 48.5722 28.6463 47.2075 29.3024C45.8428 29.9323 44.2549 30.2472 42.4441 30.2472H31.5V2.88708H41.9323C43.7957 2.88708 45.3966 3.20202 46.7351 3.8319C48.0736 4.46177 49.084 5.31472 49.7663 6.39076C50.4487 7.44055 50.7899 8.62156 50.7899 9.9338C50.7899 11.5085 50.37 12.8207 49.5301 13.8705C48.6903 14.9203 47.5618 15.6945 46.1446 16.1932ZM35.9879 14.3823H41.5386C43.0083 14.3823 44.15 14.0542 44.9636 13.3981C45.8034 12.7157 46.2233 11.7447 46.2233 10.4849C46.2233 9.25144 45.8034 8.2935 44.9636 7.61114C44.15 6.90253 43.0083 6.54823 41.5386 6.54823H35.9879V14.3823ZM42.0504 26.5861C43.5726 26.5861 44.7667 26.2187 45.6328 25.4838C46.4989 24.749 46.9319 23.7254 46.9319 22.4132C46.9319 21.0747 46.4726 20.0118 45.5541 19.2244C44.6355 18.4371 43.4151 18.0434 41.8929 18.0434H35.9879V26.5861H42.0504Z" fill="white"/>
<path d="M22.9135 0.618469H0.259766L0.265186 14.231H10.6487C22.1241 12.464 22.9135 2.29892 22.9135 0.618469Z" fill="url(#paint0_linear_30_1807)"/>
<path d="M22.9135 32.4366H0.259766L0.265186 18.824H10.6487C22.1241 20.591 22.9135 30.7561 22.9135 32.4366Z" fill="url(#paint1_linear_30_1807)"/>
<defs>
<linearGradient id="paint0_linear_30_1807" x1="0.259766" y1="7.42474" x2="28.2069" y2="7.42474" gradientUnits="userSpaceOnUse">
<stop stop-color="#5E27CB"/>
<stop offset="1" stop-color="#E7DBFF"/>
</linearGradient>
<linearGradient id="paint1_linear_30_1807" x1="0.259766" y1="25.6303" x2="28.2069" y2="25.6303" gradientUnits="userSpaceOnUse">
<stop stop-color="#5E27CB"/>
<stop offset="1" stop-color="#E7DBFF"/>
</linearGradient>
</defs>
</svg>
