<svg width="385" height="361" viewBox="0 0 385 361" fill="none" xmlns="http://www.w3.org/2000/svg">
<path d="M55.6778 100.747L57.2948 104.023L60.9098 104.549L58.2938 107.099L58.9118 110.7L55.6778 109L52.4438 110.7L53.0618 107.099L50.4448 104.549L54.0608 104.023L55.6778 100.747Z" fill="#EBEBEB"/>
<path d="M379.329 254.983L380.946 258.259L384.561 258.785L381.945 261.335L382.563 264.936L379.329 263.236L376.095 264.936L376.712 261.335L374.096 258.785L377.712 258.259L379.329 254.983Z" fill="#F5F5F5"/>
<path d="M315.223 350.066L316.84 353.342L320.456 353.867L317.839 356.418L318.457 360.019L315.223 358.319L311.989 360.019L312.607 356.418L309.99 353.867L313.606 353.342L315.223 350.066Z" fill="#F5F5F5"/>
<path d="M168.569 42.6538L169.169 43.8698L170.511 44.0648C170.846 44.1138 170.98 44.5248 170.737 44.7618L169.766 45.7088L169.995 47.0458C170.052 47.3798 169.702 47.6338 169.403 47.4768L168.202 46.8458L167.001 47.4768C166.701 47.6348 166.351 47.3798 166.409 47.0458L166.638 45.7088L165.667 44.7618C165.425 44.5258 165.558 44.1138 165.893 44.0648L167.235 43.8698L167.835 42.6538C167.986 42.3498 168.419 42.3498 168.569 42.6538Z" fill="#EBEBEB"/>
<path d="M3.40071 334.508L4.0007 335.724L5.34271 335.919C5.67771 335.968 5.81171 336.379 5.56871 336.616L4.5977 337.563L4.8267 338.9C4.8837 339.234 4.53371 339.488 4.23471 339.331L3.03371 338.7L1.83271 339.331C1.53271 339.488 1.18271 339.234 1.24071 338.9L1.46971 337.563L0.498706 336.616C0.256706 336.38 0.389707 335.968 0.724707 335.919L2.06671 335.724L2.6667 334.508C2.8177 334.204 3.25071 334.204 3.40071 334.508Z" fill="#F5F5F5"/>
<path d="M30.3788 29.8012L30.9788 31.0172L32.3208 31.2122C32.6558 31.2612 32.7898 31.6722 32.5468 31.9092L31.5758 32.8562L31.8048 34.1932C31.8618 34.5272 31.5118 34.7812 31.2118 34.6232L30.0108 33.9922L28.8108 34.6232C28.5108 34.7812 28.1608 34.5262 28.2178 34.1932L28.4468 32.8562L27.4758 31.9092C27.2338 31.6732 27.3668 31.2612 27.7018 31.2122L29.0438 31.0172L29.6438 29.8012C29.7958 29.4972 30.2288 29.4972 30.3788 29.8012Z" fill="#EBEBEB"/>
<path d="M28.7546 270.819C28.7546 271.552 28.1606 272.146 27.4276 272.146C26.6946 272.146 26.1006 271.552 26.1006 270.819C26.1006 270.086 26.6946 269.492 27.4276 269.492C28.1596 269.492 28.7546 270.086 28.7546 270.819Z" fill="#EBEBEB"/>
<path d="M218.295 104.394C218.295 105.127 217.701 105.721 216.968 105.721C216.235 105.721 215.641 105.127 215.641 104.394C215.641 103.661 216.235 103.067 216.968 103.067C217.701 103.067 218.295 103.661 218.295 104.394Z" fill="#EBEBEB"/>
<path d="M149.331 30.9002C149.331 31.6332 148.737 32.2272 148.004 32.2272C147.271 32.2272 146.677 31.6332 146.677 30.9002C146.677 30.1672 147.271 29.5732 148.004 29.5732C148.737 29.5732 149.331 30.1682 149.331 30.9002Z" fill="#F5F5F5"/>
<path d="M151.464 354.997C155.414 354.065 157.859 350.107 156.927 346.158C155.994 342.208 152.037 339.763 148.087 340.695C144.138 341.628 141.692 345.585 142.625 349.535C143.557 353.484 147.515 355.93 151.464 354.997Z" fill="#F0F0F0"/>
<path d="M147.221 343.59C145.661 343.59 144.211 344.09 143.031 344.95C142.641 345.85 142.421 346.84 142.421 347.88C142.421 351.94 145.711 355.22 149.771 355.22C151.141 355.22 152.431 354.84 153.531 354.181C153.521 354.171 153.521 354.171 153.531 354.171C154.081 353.151 154.391 351.991 154.391 350.751C154.391 346.8 151.181 343.59 147.221 343.59Z" fill="#E6E6E6"/>
<path d="M90.3037 220.146H29.4487V192.671L90.3037 120.334H119.419V194.229H134.509V220.146H119.419V242.618H90.3037V220.146ZM90.3037 194.229V156.391L58.1477 194.229H90.3037Z" fill="#612BCC"/>
<path d="M144.926 182.009C144.926 159.155 149.039 143.163 157.269 134.031C165.498 124.9 178.031 120.334 194.873 120.334C202.964 120.334 209.608 121.333 214.802 123.328C219.996 125.324 224.234 127.921 227.514 131.119C230.794 134.318 233.378 137.68 235.264 141.207C237.151 144.733 238.668 148.848 239.816 153.551C242.057 162.518 243.178 171.868 243.178 181.6C243.178 203.415 239.487 219.382 232.106 229.496C224.724 239.612 212.012 244.668 193.969 244.668C183.853 244.668 175.679 243.054 169.447 239.829C163.213 236.604 158.1 231.874 154.11 225.641C151.21 221.213 148.955 215.157 147.344 207.475C145.731 199.793 144.926 191.305 144.926 182.009ZM178.06 182.091C178.06 197.401 179.413 207.858 182.119 213.463C184.826 219.067 188.749 221.869 193.888 221.869C197.278 221.869 200.217 220.68 202.705 218.301C205.193 215.923 207.024 212.165 208.201 207.025C209.376 201.886 209.964 193.875 209.964 182.994C209.964 167.03 208.611 156.299 205.905 150.804C203.198 145.308 199.139 142.561 193.725 142.561C188.202 142.561 184.211 145.364 181.75 150.968C179.29 156.572 178.06 166.947 178.06 182.091Z" fill="#612BCC"/>
<path d="M314.368 220.146H253.513V192.671L314.368 120.334H343.483V194.229H358.573V220.146H343.483V242.618H314.368V220.146ZM314.368 194.229V156.391L282.213 194.229H314.368Z" fill="#612BCC"/>
<g opacity="0.3">
<path d="M143.576 78.1189C143.576 79.1489 142.741 79.9839 141.711 79.9839C140.681 79.9839 139.846 79.1489 139.846 78.1189C139.846 77.0889 140.681 76.2539 141.711 76.2539C142.741 76.2539 143.576 77.0889 143.576 78.1189Z" fill="#612BCC"/>
<path d="M15.5896 149.953C16.3203 149.953 16.9126 149.36 16.9126 148.63C16.9126 147.899 16.3203 147.307 15.5896 147.307C14.8589 147.307 14.2666 147.899 14.2666 148.63C14.2666 149.36 14.8589 149.953 15.5896 149.953Z" fill="#612BCC"/>
<path d="M233.678 342.726C234.723 342.726 235.571 341.879 235.571 340.833C235.571 339.788 234.723 338.94 233.678 338.94C232.632 338.94 231.785 339.788 231.785 340.833C231.785 341.879 232.632 342.726 233.678 342.726Z" fill="#612BCC"/>
<path d="M279.122 265.824C279.852 265.824 280.445 265.231 280.445 264.501C280.445 263.77 279.852 263.178 279.122 263.178C278.391 263.178 277.799 263.77 277.799 264.501C277.799 265.231 278.391 265.824 279.122 265.824Z" fill="#612BCC"/>
<path d="M366.796 28.1199C366.796 28.8509 366.204 29.4429 365.473 29.4429C364.742 29.4429 364.15 28.8509 364.15 28.1199C364.15 27.3889 364.742 26.7969 365.473 26.7969C366.204 26.7969 366.796 27.3889 366.796 28.1199Z" fill="#612BCC"/>
<path d="M115.377 1.46362C115.377 2.19462 114.785 2.78663 114.054 2.78663C113.323 2.78663 112.731 2.19462 112.731 1.46362C112.731 0.732623 113.323 0.140625 114.054 0.140625C114.785 0.140625 115.377 0.732623 115.377 1.46362Z" fill="#612BCC"/>
<path d="M220.319 70.7671C221.049 70.7671 221.642 70.1748 221.642 69.4441C221.642 68.7134 221.049 68.1211 220.319 68.1211C219.588 68.1211 218.996 68.7134 218.996 69.4441C218.996 70.1748 219.588 70.7671 220.319 70.7671Z" fill="#612BCC"/>
</g>
<path d="M83.8568 70.7712C95.9573 70.7712 105.767 60.9617 105.767 48.8612C105.767 36.7606 95.9573 26.9512 83.8568 26.9512C71.7562 26.9512 61.9468 36.7606 61.9468 48.8612C61.9468 60.9617 71.7562 70.7712 83.8568 70.7712Z" fill="#612BCC"/>
<path opacity="0.7" d="M83.8568 70.7712C95.9573 70.7712 105.767 60.9617 105.767 48.8612C105.767 36.7606 95.9573 26.9512 83.8568 26.9512C71.7562 26.9512 61.9468 36.7606 61.9468 48.8612C61.9468 60.9617 71.7562 70.7712 83.8568 70.7712Z" fill="white"/>
<path opacity="0.2" d="M76.3057 32.3301C73.2347 32.3301 70.3197 32.9651 67.6647 34.1001C64.1147 37.9931 61.9487 43.1781 61.9487 48.8621C61.9487 60.9591 71.7557 70.7661 83.8527 70.7661C86.9337 70.7661 89.8697 70.1311 92.5357 68.9861C92.5357 68.9861 92.5357 68.9861 92.5357 68.9761C96.0647 65.0821 98.2197 59.9181 98.2197 54.2451C98.2207 42.1371 88.4137 32.3301 76.3057 32.3301Z" fill="#612BCC"/>
<path opacity="0.2" d="M74.1276 38.1231C74.1276 39.2291 73.2306 40.1261 72.1246 40.1261C71.0186 40.1261 70.1216 39.2291 70.1216 38.1231C70.1216 37.0171 71.0186 36.1201 72.1246 36.1201C73.2306 36.1201 74.1276 37.0171 74.1276 38.1231Z" fill="#612BCC"/>
<path opacity="0.2" d="M97.6876 36.1202C97.6876 37.2262 96.7906 38.1232 95.6846 38.1232C94.5786 38.1232 93.6816 37.2262 93.6816 36.1202C93.6816 35.0142 94.5786 34.1172 95.6846 34.1172C96.7906 34.1182 97.6876 35.0142 97.6876 36.1202Z" fill="#612BCC"/>
<path opacity="0.2" d="M93.682 50.401C93.682 52.211 92.215 53.679 90.404 53.679C88.594 53.679 87.126 52.211 87.126 50.401C87.126 48.591 88.593 47.123 90.404 47.123C92.214 47.123 93.682 48.591 93.682 50.401Z" fill="#612BCC"/>
<path opacity="0.2" d="M83.2659 59.7462C83.2659 62.1662 81.3039 64.1272 78.8849 64.1272C76.4649 64.1272 74.5039 62.1652 74.5039 59.7462C74.5039 57.3262 76.4659 55.3652 78.8849 55.3652C81.3039 55.3652 83.2659 57.3272 83.2659 59.7462Z" fill="#612BCC"/>
<path d="M343.531 313.205C345.971 302.871 339.572 292.516 329.238 290.076C318.904 287.636 308.549 294.035 306.109 304.368C303.669 314.702 310.068 325.057 320.402 327.497C330.735 329.937 341.09 323.538 343.531 313.205Z" fill="#612BCC"/>
<path opacity="0.3" d="M343.531 313.205C345.971 302.871 339.572 292.516 329.238 290.076C318.904 287.636 308.549 294.035 306.109 304.368C303.669 314.702 310.068 325.057 320.402 327.497C330.735 329.937 341.09 323.538 343.531 313.205Z" fill="white"/>
<path opacity="0.4" d="M336.956 293.839C335.207 293.308 333.344 293.027 331.418 293.027C320.799 293.027 312.189 301.637 312.189 312.255C312.189 318.273 314.948 323.634 319.279 327.163C321.028 327.694 322.891 327.975 324.818 327.975C335.437 327.975 344.046 319.365 344.046 308.747C344.046 302.73 341.287 297.358 336.956 293.839Z" fill="#612BCC"/>
<path d="M306.454 314.449C285.92 324.111 301.238 331.558 330.166 321.162C356.95 311.536 367.133 299.393 343.218 303.156C344.452 308.264 310.906 321.335 306.454 314.449Z" fill="#612BCC"/>
<path opacity="0.2" d="M336.72 120.33C309.83 138.5 275.02 162.46 265.41 220.14H263.36C272.71 163.16 306.25 138.57 333.15 120.33H336.72Z" fill="black"/>
<path d="M197.642 300.767C180.672 300.768 163.833 293.105 155.656 280.581C150.603 272.842 144.736 256.631 162.211 235.003L163.767 236.261C151.405 251.56 149.119 266.911 157.331 279.488C167.325 294.797 190.927 302.494 211.061 297.016C231.689 291.403 244.213 273.459 245.422 247.788C249.557 159.981 296.206 132.933 330.268 113.183C351.43 100.913 366.72 92.047 363.359 73.345C362.893 70.75 361.858 68.957 360.196 67.864C355.843 64.996 347.343 66.978 337.502 69.272C318.196 73.769 291.756 79.929 276.005 53.138L277.729 52.124C292.735 77.647 317.306 71.924 337.048 67.323C347.338 64.927 356.225 62.856 361.296 66.192C363.441 67.604 364.76 69.828 365.328 72.991C368.937 93.073 352.315 102.711 331.271 114.913C297.607 134.432 251.503 161.164 247.419 247.881C246.167 274.477 233.106 293.089 211.585 298.945C207.05 300.179 202.339 300.766 197.642 300.767Z" fill="#612BCC"/>
<path opacity="0.2" d="M197.642 300.767C180.672 300.768 163.833 293.105 155.656 280.581C150.603 272.842 144.736 256.631 162.211 235.003L163.767 236.261C151.405 251.56 149.119 266.911 157.331 279.488C167.325 294.797 190.927 302.494 211.061 297.016C231.689 291.403 244.213 273.459 245.422 247.788C249.557 159.981 296.206 132.933 330.268 113.183C351.43 100.913 366.72 92.047 363.359 73.345C362.893 70.75 361.858 68.957 360.196 67.864C355.843 64.996 347.343 66.978 337.502 69.272C318.196 73.769 291.756 79.929 276.005 53.138L277.729 52.124C292.735 77.647 317.306 71.924 337.048 67.323C347.338 64.927 356.225 62.856 361.296 66.192C363.441 67.604 364.76 69.828 365.328 72.991C368.937 93.073 352.315 102.711 331.271 114.913C297.607 134.432 251.503 161.164 247.419 247.881C246.167 274.477 233.106 293.089 211.585 298.945C207.05 300.179 202.339 300.766 197.642 300.767Z" fill="white"/>
<path d="M255.381 29.4484C262.236 29.3234 268.963 31.5824 268.963 31.5824C268.963 31.5824 279.928 50.3534 281.265 54.6494C280.804 58.8894 273.65 65.8404 273.65 65.8404L255.381 29.4484Z" fill="#612BCC"/>
<path opacity="0.3" d="M255.381 29.4484C262.236 29.3234 268.963 31.5824 268.963 31.5824C268.963 31.5824 279.928 50.3534 281.265 54.6494C280.804 58.8894 273.65 65.8404 273.65 65.8404L255.381 29.4484Z" fill="white"/>
<path d="M287.962 120.633C283.826 115.385 279.765 110.039 276.403 104.248C275.563 102.801 274.767 101.327 274.014 99.8331C273.586 98.9841 273.172 98.1282 272.77 97.2662C272.419 96.5132 271.644 95.4042 271.566 94.5822C270.365 81.9102 274.703 72.5822 270.538 62.4102L254.067 68.8472C254.067 68.8472 255.468 86.9692 258.665 97.8102C260.649 104.536 265.14 110.359 269.468 115.747C270.822 117.433 272.127 119.157 273.478 120.845C274.757 122.443 276.19 123.909 277.472 125.499C279.419 127.912 280.067 130.215 278.587 133.06C278.508 133.212 278.425 133.363 278.34 133.513C277.92 134.254 279.886 135.094 281.121 133.534C283.163 130.953 282.842 131.112 284.583 128.911C285.64 127.575 286.854 126.132 287.902 124.878C288.926 123.655 288.949 121.885 287.962 120.633Z" fill="#612BCC"/>
<path opacity="0.7" d="M287.962 120.633C283.826 115.385 279.765 110.039 276.403 104.248C275.563 102.801 274.767 101.327 274.014 99.8331C273.586 98.9841 273.172 98.1282 272.77 97.2662C272.419 96.5132 271.644 95.4042 271.566 94.5822C270.365 81.9102 274.703 72.5822 270.538 62.4102L254.067 68.8472C254.067 68.8472 255.468 86.9692 258.665 97.8102C260.649 104.536 265.14 110.359 269.468 115.747C270.822 117.433 272.127 119.157 273.478 120.845C274.757 122.443 276.19 123.909 277.472 125.499C279.419 127.912 280.067 130.215 278.587 133.06C278.508 133.212 278.425 133.363 278.34 133.513C277.92 134.254 279.886 135.094 281.121 133.534C283.163 130.953 282.842 131.112 284.583 128.911C285.64 127.575 286.854 126.132 287.902 124.878C288.926 123.655 288.949 121.885 287.962 120.633Z" fill="white"/>
<path opacity="0.3" d="M283.935 115.418C281.73 118.083 277.247 121.54 275.271 122.941C275.701 123.42 276.127 123.909 276.554 124.398C280.622 121.741 283.838 118.294 285.058 116.894C284.681 116.409 284.308 115.913 283.935 115.418Z" fill="#612BCC"/>
<path opacity="0.3" d="M287.958 120.635C287.92 120.583 287.88 120.541 287.842 120.49C287.148 121.213 286.659 122.366 286.577 123.66C286.511 124.554 286.661 125.372 286.954 126.011C287.287 125.625 287.598 125.243 287.903 124.88C288.931 123.656 288.945 121.887 287.958 120.635Z" fill="#612BCC"/>
<path d="M251.465 41.451C249.742 43.9571 247.711 46.427 245.09 48.6451C243.789 49.76 242.304 50.7691 240.673 51.6251C239.85 52.0451 238.985 52.4091 238.09 52.7101L237.415 52.9271L237.197 52.9951C237.039 53.0431 236.88 53.0861 236.72 53.1241C236.418 53.1921 236.115 53.2381 235.847 53.2601C234.764 53.3421 233.979 53.1881 233.332 53.0271C232.055 52.6791 231.202 52.2141 230.395 51.7631C229.6 51.3041 228.902 50.8341 228.241 50.3491C226.939 49.3581 225.761 48.3631 224.663 47.3011C222.453 45.1911 220.493 43.0031 218.673 40.5661C217.843 39.4551 218.071 37.8821 219.182 37.0531C220.039 36.4121 221.172 36.4021 222.025 36.9411L222.101 36.9901C224.461 38.4881 226.842 40.0681 229.165 41.4821C230.338 42.1741 231.484 42.8701 232.611 43.4121C233.165 43.6921 233.708 43.9471 234.198 44.1281C234.675 44.3141 235.151 44.42 235.275 44.3951C235.327 44.392 235.265 44.3211 234.897 44.3341C234.808 44.3391 234.682 44.3511 234.554 44.3791C234.48 44.3931 234.408 44.4121 234.336 44.4351C234.267 44.4581 234.365 44.4161 234.371 44.4101L234.702 44.2411C235.142 44.0171 235.564 43.7371 235.992 43.4521C236.848 42.8731 237.663 42.1381 238.495 41.3321C240.141 39.6971 241.725 37.6621 243.397 35.5461L243.419 35.5171C245.131 33.3491 248.277 32.9801 250.445 34.6921C252.521 36.3311 252.938 39.3 251.465 41.451Z" fill="#612BCC"/>
<path opacity="0.7" d="M251.465 41.451C249.742 43.9571 247.711 46.427 245.09 48.6451C243.789 49.76 242.304 50.7691 240.673 51.6251C239.85 52.0451 238.985 52.4091 238.09 52.7101L237.415 52.9271L237.197 52.9951C237.039 53.0431 236.88 53.0861 236.72 53.1241C236.418 53.1921 236.115 53.2381 235.847 53.2601C234.764 53.3421 233.979 53.1881 233.332 53.0271C232.055 52.6791 231.202 52.2141 230.395 51.7631C229.6 51.3041 228.902 50.8341 228.241 50.3491C226.939 49.3581 225.761 48.3631 224.663 47.3011C222.453 45.1911 220.493 43.0031 218.673 40.5661C217.843 39.4551 218.071 37.8821 219.182 37.0531C220.039 36.4121 221.172 36.4021 222.025 36.9411L222.101 36.9901C224.461 38.4881 226.842 40.0681 229.165 41.4821C230.338 42.1741 231.484 42.8701 232.611 43.4121C233.165 43.6921 233.708 43.9471 234.198 44.1281C234.675 44.3141 235.151 44.42 235.275 44.3951C235.327 44.392 235.265 44.3211 234.897 44.3341C234.808 44.3391 234.682 44.3511 234.554 44.3791C234.48 44.3931 234.408 44.4121 234.336 44.4351C234.267 44.4581 234.365 44.4161 234.371 44.4101L234.702 44.2411C235.142 44.0171 235.564 43.7371 235.992 43.4521C236.848 42.8731 237.663 42.1381 238.495 41.3321C240.141 39.6971 241.725 37.6621 243.397 35.5461L243.419 35.5171C245.131 33.3491 248.277 32.9801 250.445 34.6921C252.521 36.3311 252.938 39.3 251.465 41.451Z" fill="white"/>
<path d="M214.908 34.9162L216.08 36.8822C216.08 36.8822 216.975 39.4982 218.766 39.9822L223.62 38.4102L223.377 38.0022C223.379 38.0032 223.382 38.0032 223.384 38.0032C222.762 37.0562 222.829 35.2302 223.048 33.7112C223.266 32.1922 222.478 32.1382 221.896 32.5162C221.56 32.7342 221.322 33.4272 221.049 34.1742C220.81 33.8452 220.554 33.5282 220.265 33.2402L218.782 31.7632C218.142 31.1262 217.117 31.0972 216.442 31.6972L215.24 32.7652C214.628 33.3092 214.489 34.2122 214.908 34.9162Z" fill="#612BCC"/>
<path opacity="0.7" d="M214.908 34.9162L216.08 36.8822C216.08 36.8822 216.975 39.4982 218.766 39.9822L223.62 38.4102L223.377 38.0022C223.379 38.0032 223.382 38.0032 223.384 38.0032C222.762 37.0562 222.829 35.2302 223.048 33.7112C223.266 32.1922 222.478 32.1382 221.896 32.5162C221.56 32.7342 221.322 33.4272 221.049 34.1742C220.81 33.8452 220.554 33.5282 220.265 33.2402L218.782 31.7632C218.142 31.1262 217.117 31.0972 216.442 31.6972L215.24 32.7652C214.628 33.3092 214.489 34.2122 214.908 34.9162Z" fill="white"/>
<path d="M260.297 27.7235C255.648 28.8515 249.261 31.5045 244.948 34.1915C243.419 35.1435 242.656 36.9515 243.016 38.7165C244.94 48.1565 249.33 60.8015 254.069 68.8455L276.18 59.6985C276.332 55.7985 270.964 43.1785 265.496 30.9815C264.514 28.7875 262.633 27.1575 260.297 27.7235Z" fill="#612BCC"/>
<path opacity="0.8" d="M260.297 27.7235C255.648 28.8515 249.261 31.5045 244.948 34.1915C243.419 35.1435 242.656 36.9515 243.016 38.7165C244.94 48.1565 249.33 60.8015 254.069 68.8455L276.18 59.6985C276.332 55.7985 270.964 43.1785 265.496 30.9815C264.514 28.7875 262.633 27.1575 260.297 27.7235Z" fill="white"/>
<path opacity="0.3" d="M268.919 38.7142L264.531 37.2432C265.513 39.8102 269.064 43.0642 271.561 44.9752C270.738 42.9692 269.846 40.8722 268.919 38.7142Z" fill="#612BCC"/>
<path d="M258.84 17.8198C257.015 14.3388 253.066 12.5868 248.324 12.9828C244.326 13.3168 240.78 17.3988 241.201 19.6048C241.621 21.8108 244.986 22.7448 245.595 23.5108L242.822 25.5208C241.442 26.5218 241.172 28.4678 242.226 29.8078C243.393 31.2898 244.929 32.8378 245.824 33.9308C253.488 33.7318 259.156 30.8078 261.198 27.9948C260.464 24.4158 260.655 21.2818 258.84 17.8198Z" fill="#612BCC"/>
<path opacity="0.8" d="M258.84 17.8198C257.015 14.3388 253.066 12.5868 248.324 12.9828C244.326 13.3168 240.78 17.3988 241.201 19.6048C241.621 21.8108 244.986 22.7448 245.595 23.5108L242.822 25.5208C241.442 26.5218 241.172 28.4678 242.226 29.8078C243.393 31.2898 244.929 32.8378 245.824 33.9308C253.488 33.7318 259.156 30.8078 261.198 27.9948C260.464 24.4158 260.655 21.2818 258.84 17.8198Z" fill="white"/>
<path d="M255.084 19.9755C256.606 23.8715 254.683 28.2635 250.787 29.7855C246.891 31.3075 242.499 29.3845 240.977 25.4885C239.455 21.5935 241.378 17.2005 245.274 15.6785C249.169 14.1565 253.561 16.0805 255.084 19.9755Z" fill="#01025C"/>
<path d="M320.011 110.096C319.9 106.807 319.758 107.136 319.662 104.332C319.604 102.629 319.597 100.743 319.586 99.1092C319.575 97.5142 318.448 96.1492 316.885 95.8322C315.56 95.5632 314.231 95.3072 312.908 95.0252C311.182 94.6572 309.476 94.2612 307.781 93.7692C306.467 93.3872 305.164 92.9662 303.876 92.5022C302.496 92.0052 301.135 91.4602 299.787 90.8822C298.211 90.2062 296.654 89.4862 295.109 88.7442C293.384 87.9162 291.672 87.0602 289.966 86.1932C283.385 75.2982 283.243 68.1192 276.18 59.6982L261.02 66.5562C261.02 66.5562 272.159 86.3212 279.745 94.7012C284.112 99.5242 290.963 101.698 297.073 103.276C301.481 104.414 305.951 105.285 310.426 106.107C312.166 106.426 314.057 106.55 315.554 107.589C316.733 108.407 317.343 109.684 317.691 111.041C317.762 111.318 317.822 111.598 317.876 111.88C318.036 112.717 320.079 112.085 320.011 110.096Z" fill="#612BCC"/>
<path opacity="0.8" d="M320.011 110.096C319.9 106.807 319.758 107.136 319.662 104.332C319.604 102.629 319.597 100.743 319.586 99.1092C319.575 97.5142 318.448 96.1492 316.885 95.8322C315.56 95.5632 314.231 95.3072 312.908 95.0252C311.182 94.6572 309.476 94.2612 307.781 93.7692C306.467 93.3872 305.164 92.9662 303.876 92.5022C302.496 92.0052 301.135 91.4602 299.787 90.8822C298.211 90.2062 296.654 89.4862 295.109 88.7442C293.384 87.9162 291.672 87.0602 289.966 86.1932C283.385 75.2982 283.243 68.1192 276.18 59.6982L261.02 66.5562C261.02 66.5562 272.159 86.3212 279.745 94.7012C284.112 99.5242 290.963 101.698 297.073 103.276C301.481 104.414 305.951 105.285 310.426 106.107C312.166 106.426 314.057 106.55 315.554 107.589C316.733 108.407 317.343 109.684 317.691 111.041C317.762 111.318 317.822 111.598 317.876 111.88C318.036 112.717 320.079 112.085 320.011 110.096Z" fill="white"/>
<path opacity="0.3" d="M312.323 94.9002C311.726 94.7692 311.12 94.6352 310.517 94.4922C310.564 97.9452 308.945 103.909 308.35 105.716C308.981 105.835 309.621 105.957 310.252 106.077C312.007 101.332 312.283 96.3092 312.323 94.9002Z" fill="#612BCC"/>
<path opacity="0.3" d="M319.584 99.1105C319.573 97.5115 318.45 96.1495 316.89 95.8295C316.576 95.7655 316.252 95.6976 315.936 95.6436C316.002 96.5836 316.586 97.6745 317.564 98.5405C318.205 99.1185 318.93 99.5025 319.596 99.6835C319.586 99.4845 319.585 99.2975 319.584 99.1105Z" fill="#612BCC"/>
<path d="M253.669 20.0399C254.074 21.5559 252.377 23.1499 251.019 21.8389C249.917 20.7749 248.257 18.9929 246.902 18.1459C245.51 17.2749 247.366 15.7589 249.552 16.3469C251.593 16.8969 253.264 18.5229 253.669 20.0399Z" fill="white"/>
<path d="M253.784 68.3595C253.079 68.6195 254.367 69.8155 254.367 69.8155C254.367 69.8155 268.337 65.0285 276.862 60.0995C276.934 59.0685 276.184 58.5215 276.184 58.5215C276.184 58.5215 265.812 63.9255 253.784 68.3595Z" fill="#612BCC"/>
<path opacity="0.5" d="M253.784 68.3595C253.079 68.6195 254.367 69.8155 254.367 69.8155C254.367 69.8155 268.337 65.0285 276.862 60.0995C276.934 59.0685 276.184 58.5215 276.184 58.5215C276.184 58.5215 265.812 63.9255 253.784 68.3595Z" fill="white"/>
<path d="M264.083 27.0624C266.841 28.4554 269.437 29.9304 272.03 31.5634C273.321 32.3764 274.606 33.2114 275.872 34.1124C277.148 34.9954 278.407 35.9264 279.67 36.9744L280.144 37.3624L280.735 37.8954C281.155 38.2654 281.463 38.6064 281.772 38.9464C282.096 39.2974 282.363 39.6354 282.626 39.9724C282.899 40.3114 283.158 40.6484 283.391 40.9804C284.38 42.3084 285.186 43.6594 285.977 44.9994C287.514 47.7164 288.845 50.4294 289.943 53.3484C290.433 54.6504 289.775 56.1024 288.472 56.5934C287.494 56.9614 286.43 56.6814 285.754 55.9674L285.705 55.9134C283.696 53.7854 281.769 51.5404 279.83 49.4554C277.933 47.3764 275.918 45.2424 274.293 44.3144C272.023 42.8984 269.495 41.4924 266.983 40.1074L259.42 35.9094L259.401 35.8994C256.986 34.5594 256.115 31.5154 257.455 29.1004C258.764 26.7454 261.7 25.8624 264.083 27.0624Z" fill="#612BCC"/>
<path opacity="0.8" d="M264.083 27.0624C266.841 28.4554 269.437 29.9304 272.03 31.5634C273.321 32.3764 274.606 33.2114 275.872 34.1124C277.148 34.9954 278.407 35.9264 279.67 36.9744L280.144 37.3624L280.735 37.8954C281.155 38.2654 281.463 38.6064 281.772 38.9464C282.096 39.2974 282.363 39.6354 282.626 39.9724C282.899 40.3114 283.158 40.6484 283.391 40.9804C284.38 42.3084 285.186 43.6594 285.977 44.9994C287.514 47.7164 288.845 50.4294 289.943 53.3484C290.433 54.6504 289.775 56.1024 288.472 56.5934C287.494 56.9614 286.43 56.6814 285.754 55.9674L285.705 55.9134C283.696 53.7854 281.769 51.5404 279.83 49.4554C277.933 47.3764 275.918 45.2424 274.293 44.3144C272.023 42.8984 269.495 41.4924 266.983 40.1074L259.42 35.9094L259.401 35.8994C256.986 34.5594 256.115 31.5154 257.455 29.1004C258.764 26.7454 261.7 25.8624 264.083 27.0624Z" fill="white"/>
<path d="M292.356 58.2379L291.507 56.1129C291.507 56.1129 291.033 53.3889 289.34 52.6299L284.3 53.4219L284.476 53.8629C284.474 53.8619 284.472 53.8609 284.469 53.8609C284.935 54.8929 284.582 56.6869 284.128 58.1519C283.674 59.6179 284.444 59.7949 285.078 59.5129C285.444 59.3499 285.788 58.7029 286.174 58.0079C286.359 58.3709 286.562 58.7239 286.802 59.0529L288.035 60.7439C288.567 61.4729 289.575 61.6629 290.336 61.1759L291.69 60.3089C292.381 59.8679 292.661 58.9989 292.356 58.2379Z" fill="#612BCC"/>
<path opacity="0.8" d="M292.356 58.2379L291.507 56.1129C291.507 56.1129 291.033 53.3889 289.34 52.6299L284.3 53.4219L284.476 53.8629C284.474 53.8619 284.472 53.8609 284.469 53.8609C284.935 54.8929 284.582 56.6869 284.128 58.1519C283.674 59.6179 284.444 59.7949 285.078 59.5129C285.444 59.3499 285.788 58.7029 286.174 58.0079C286.359 58.3709 286.562 58.7239 286.802 59.0529L288.035 60.7439C288.567 61.4729 289.575 61.6629 290.336 61.1759L291.69 60.3089C292.381 59.8679 292.661 58.9989 292.356 58.2379Z" fill="white"/>
<path opacity="0.3" d="M259.859 38.5566L258.64 38.6556L251.155 56.7396C251.595 56.7696 251.999 56.7326 252.373 56.6406C252.373 56.6406 262.133 53.0036 265.087 51.6706C263.099 47.5506 259.859 38.5566 259.859 38.5566Z" fill="#612BCC"/>
<path d="M246.191 43.3013C246.608 46.5583 249.05 53.4803 251.156 56.7393C254.811 55.4792 260.916 53.1022 263.87 51.7692C261.881 47.6502 259.787 41.9743 258.641 38.6562C255.492 38.8653 248.629 41.4503 246.191 43.3013Z" fill="white"/>
<path opacity="0.3" d="M253.623 47.2128C253.215 48.5778 251.777 49.3528 250.413 48.9438C249.049 48.5348 248.273 47.0978 248.682 45.7338C249.091 44.3688 250.528 43.5938 251.892 44.0028C253.256 44.4108 254.031 45.8478 253.623 47.2128Z" fill="#612BCC"/>
<path opacity="0.6" d="M255.536 43.7675C255.402 44.2145 254.931 44.4685 254.484 44.3345C254.037 44.2005 253.783 43.7295 253.916 43.2825C254.05 42.8355 254.521 42.5815 254.968 42.7155C255.416 42.8485 255.67 43.3195 255.536 43.7675Z" fill="#612BCC"/>
<path opacity="0.6" d="M257.768 42.8983C257.634 43.3453 257.163 43.5993 256.716 43.4653C256.269 43.3313 256.015 42.8603 256.149 42.4133C256.283 41.9663 256.754 41.7123 257.201 41.8463C257.648 41.9803 257.902 42.4513 257.768 42.8983Z" fill="#612BCC"/>
<path opacity="0.5" d="M260.914 50.6862L251.667 54.3402L251.108 52.5222L260.355 48.8672L260.914 50.6862Z" fill="#612BCC"/>
<path opacity="0.2" d="M209.881 189.67C209.681 197.21 209.121 203 208.201 207.02C207.021 212.16 205.191 215.92 202.701 218.3C200.221 220.68 197.281 221.87 193.891 221.87C188.751 221.87 184.821 219.07 182.121 213.46C181.681 212.55 181.281 211.51 180.911 210.35C175.201 215.26 169.881 220.62 164.991 226.38L159.681 232.64C162.551 235.55 165.811 237.94 169.451 239.83C175.681 243.05 183.851 244.67 193.971 244.67C195.751 244.67 197.471 244.62 199.141 244.52C205.261 235.46 210.331 225.72 214.241 215.5L229.091 176.78L209.881 189.67Z" fill="black"/>
<path d="M76.0117 242.459C81.6087 248.056 93.5137 259.961 93.5137 259.961L142.525 213.794C125.659 207.382 92.7827 225.689 76.0117 242.459Z" fill="#01025C"/>
<path d="M137.045 303.492C131.448 297.895 119.543 285.99 119.543 285.99L165.71 236.98C172.122 253.845 153.816 286.721 137.045 303.492Z" fill="#01025C"/>
<path d="M204.023 193.2L223.114 156.391L186.305 175.482C174.479 181.616 163.561 189.359 153.861 198.49L91.1138 257.56L121.944 288.39L181.014 225.643C190.146 215.944 197.889 205.026 204.023 193.2Z" fill="#612BCC"/>
<path opacity="0.6" d="M204.023 193.2L223.114 156.391L186.305 175.482C174.479 181.616 163.561 189.359 153.861 198.49L91.1138 257.56L121.944 288.39L181.014 225.643C190.146 215.944 197.889 205.026 204.023 193.2Z" fill="white"/>
<path d="M164.821 227.582C171.945 227.582 177.72 221.807 177.72 214.683C177.72 207.559 171.945 201.784 164.821 201.784C157.697 201.784 151.922 207.559 151.922 214.683C151.922 221.807 157.697 227.582 164.821 227.582Z" fill="white"/>
<path d="M164.821 222.968C169.396 222.968 173.106 219.259 173.106 214.683C173.106 210.108 169.396 206.398 164.821 206.398C160.245 206.398 156.536 210.108 156.536 214.683C156.536 219.259 160.245 222.968 164.821 222.968Z" fill="#612BCC"/>
<path opacity="0.3" d="M132.37 277.317L102.188 247.136L126.898 223.872L155.633 252.606L132.37 277.317Z" fill="#612BCC"/>
<path d="M82.8435 270.116C60.2385 271.955 52.7505 286.422 50.1965 305.655C48.8945 315.464 48.3165 325.388 40.0795 331.13C37.7935 332.724 38.9285 336.277 41.7145 336.19C72.0535 335.243 86.2045 320.386 87.9815 314.165C87.3695 318.098 86.4775 321.2 85.4895 323.64C84.4735 326.147 87.2265 328.467 89.5185 327.031C98.0355 321.695 108.718 311.876 109.428 295.953C103.131 287.103 82.8435 270.116 82.8435 270.116Z" fill="#612BCC"/>
<path opacity="0.2" d="M82.8435 270.116C60.2385 271.955 52.7505 286.422 50.1965 305.655C48.8945 315.464 48.3165 325.388 40.0795 331.13C37.7935 332.724 38.9285 336.277 41.7145 336.19C72.0535 335.243 86.2045 320.386 87.9815 314.165C87.3695 318.098 86.4775 321.2 85.4895 323.64C84.4735 326.147 87.2265 328.467 89.5185 327.031C98.0355 321.695 108.718 311.876 109.428 295.953C103.131 287.103 82.8435 270.116 82.8435 270.116Z" fill="white"/>
<path d="M112.9 302.801L76.7036 266.605L95.9866 262.434L117.072 283.518L112.9 302.801Z" fill="#612BCC"/>
</svg>
