<svg width="15" height="15" viewBox="0 0 15 15" fill="none" xmlns="http://www.w3.org/2000/svg">
<path d="M8.60156 1.28906C8.60156 0.805078 8.21055 0.414062 7.72656 0.414062C7.24258 0.414062 6.85156 0.805078 6.85156 1.28906V7.92539L4.84453 5.91836C4.50273 5.57656 3.94766 5.57656 3.60586 5.91836C3.26406 6.26016 3.26406 6.81523 3.60586 7.15703L7.10586 10.657C7.44766 10.9988 8.00273 10.9988 8.34453 10.657L11.8445 7.15703C12.1863 6.81523 12.1863 6.26016 11.8445 5.91836C11.5027 5.57656 10.9477 5.57656 10.6059 5.91836L8.60156 7.92539V1.28906ZM2.47656 10.0391C1.51133 10.0391 0.726562 10.8238 0.726562 11.7891V12.6641C0.726562 13.6293 1.51133 14.4141 2.47656 14.4141H12.9766C13.9418 14.4141 14.7266 13.6293 14.7266 12.6641V11.7891C14.7266 10.8238 13.9418 10.0391 12.9766 10.0391H10.2012L8.9625 11.2777C8.27891 11.9613 7.17148 11.9613 6.48789 11.2777L5.25195 10.0391H2.47656ZM12.5391 11.5703C12.7131 11.5703 12.88 11.6395 13.0031 11.7625C13.1262 11.8856 13.1953 12.0525 13.1953 12.2266C13.1953 12.4006 13.1262 12.5675 13.0031 12.6906C12.88 12.8137 12.7131 12.8828 12.5391 12.8828C12.365 12.8828 12.1981 12.8137 12.075 12.6906C11.952 12.5675 11.8828 12.4006 11.8828 12.2266C11.8828 12.0525 11.952 11.8856 12.075 11.7625C12.1981 11.6395 12.365 11.5703 12.5391 11.5703Z" fill="white"/>
</svg>
