<svg width="14" height="14" viewBox="0 0 14 14" fill="none" xmlns="http://www.w3.org/2000/svg">
<path d="M7.02364 0.148438C3.4373 0.148438 0.519531 3.06851 0.519531 6.65769C0.519531 10.2469 3.4373 13.1669 7.02364 13.1669C10.61 13.1669 13.5278 10.2469 13.5278 6.65769C13.5278 3.06851 10.61 0.148438 7.02364 0.148438ZM7.02364 1.12483C8.37074 1.12483 9.60237 1.60532 10.5603 2.40316C9.66508 3.19187 8.64146 3.8337 7.53749 4.32606C6.96235 3.27925 6.338 2.26419 5.63707 1.30663C6.08073 1.19223 6.5437 1.12483 7.02364 1.12483ZM4.67733 1.65116C5.39681 2.60331 6.03164 3.61926 6.61586 4.66805C5.41403 5.08591 4.14158 5.35584 2.79597 5.35584C2.41625 5.35584 2.04193 5.3305 1.67045 5.29418C2.07951 3.67491 3.19628 2.3458 4.67733 1.65116ZM11.2519 3.09286C12.0517 4.04257 12.537 5.26529 12.5496 6.60493C11.8473 6.42863 11.1134 6.33223 10.357 6.33223C9.76249 6.33223 9.18813 6.40903 8.62553 6.51911C8.42958 6.06482 8.21496 5.62331 7.99418 5.18294C9.1842 4.64435 10.2889 3.94862 11.2519 3.09286ZM7.08144 5.54146C7.28747 5.94871 7.49523 6.35301 7.67913 6.77275C5.70761 7.38987 4.01525 8.64261 2.87981 10.3153C2.02047 9.34054 1.49515 8.06347 1.49515 6.65769C1.49515 6.52282 1.50605 6.39091 1.51547 6.25849C1.93671 6.30171 2.3621 6.33223 2.79597 6.33223C4.30602 6.33223 5.73749 6.02735 7.08144 5.54146ZM10.357 7.30862C11.0883 7.30862 11.7939 7.41256 12.467 7.59594C12.2118 9.09519 11.3606 10.3867 10.1601 11.2148C9.87092 9.93344 9.46613 8.69805 9.00282 7.49169C9.44972 7.41469 9.88774 7.30862 10.357 7.30862ZM8.02911 7.67476C8.53997 8.97682 8.9769 10.3163 9.26959 11.7125C8.58325 12.0176 7.82457 12.1906 7.02364 12.1906C5.72629 12.1906 4.53813 11.7423 3.59628 10.9968C4.62001 9.41676 6.18811 8.2333 8.02911 7.67476Z" fill="#5C5D68"/>
</svg>
