<svg width="14" height="14" viewBox="0 0 14 14" fill="none" xmlns="http://www.w3.org/2000/svg">
<path d="M7.01249 0.867188C3.36635 0.867188 0.410156 3.82572 0.410156 7.47474C0.410156 10.5709 2.54051 13.1616 5.41253 13.8786C5.38172 13.7894 5.36191 13.6858 5.36191 13.5575V12.4282C5.09396 12.4282 4.645 12.4282 4.53221 12.4282C4.0805 12.4282 3.67886 12.2338 3.48409 11.8726C3.26787 11.4712 3.23045 10.8573 2.69456 10.4817C2.53556 10.3567 2.6566 10.2141 2.83982 10.2334C3.17819 10.3292 3.45878 10.5616 3.72288 10.9063C3.98587 11.2515 4.10967 11.3297 4.60099 11.3297C4.83922 11.3297 5.19575 11.3159 5.53137 11.2631C5.71183 10.8044 6.02379 10.3821 6.40508 10.1827C4.2065 9.95643 3.15728 8.86178 3.15728 7.37563C3.15728 6.7358 3.42962 6.11689 3.89234 5.59544C3.74048 5.07785 3.54957 4.02229 3.95066 3.62034C4.93991 3.62034 5.53797 4.26237 5.68157 4.43582C6.17455 4.26677 6.71594 4.17096 7.28484 4.17096C7.85484 4.17096 8.39843 4.26677 8.89251 4.43692C9.03446 4.26457 9.63307 3.62034 10.6245 3.62034C11.0273 4.02285 10.8341 5.08281 10.6806 5.5993C11.1406 6.11964 11.4113 6.7369 11.4113 7.37563C11.4113 8.86068 10.3637 9.95478 8.16845 10.1822C8.77256 10.4977 9.21327 11.3842 9.21327 12.0521V13.5575C9.21327 13.6148 9.20062 13.6561 9.19401 13.7051C11.7667 12.8026 13.6148 10.3578 13.6148 7.47474C13.6148 3.82572 10.6586 0.867188 7.01249 0.867188Z" fill="#5C5D68"/>
</svg>
