<svg width="14" height="14" viewBox="0 0 14 14" fill="none" xmlns="http://www.w3.org/2000/svg">
<path d="M4.36087 0.529297C2.24296 0.529297 0.519531 2.25409 0.519531 4.37368V9.69666C0.519531 11.8162 2.24296 13.541 4.36087 13.541H9.67965C11.7976 13.541 13.521 11.8162 13.521 9.69666V4.37368C13.521 2.25409 11.7976 0.529297 9.67965 0.529297H4.36087ZM4.36087 1.12074H9.67965C11.4781 1.12074 12.93 2.57377 12.93 4.37368V9.69666C12.93 11.4966 11.4781 12.9496 9.67965 12.9496H4.36087C2.56239 12.9496 1.11051 11.4966 1.11051 9.69666V4.37368C1.11051 2.57377 2.56239 1.12074 4.36087 1.12074ZM10.5661 2.89507C10.4094 2.89507 10.2591 2.95738 10.1482 3.0683C10.0374 3.17921 9.97514 3.32965 9.97514 3.48651C9.97514 3.64337 10.0374 3.79381 10.1482 3.90472C10.2591 4.01564 10.4094 4.07795 10.5661 4.07795C10.7229 4.07795 10.8732 4.01564 10.984 3.90472C11.0948 3.79381 11.1571 3.64337 11.1571 3.48651C11.1571 3.32965 11.0948 3.17921 10.984 3.0683C10.8732 2.95738 10.7229 2.89507 10.5661 2.89507ZM7.02026 3.78223C5.22864 3.78223 3.7699 5.24212 3.7699 7.03517C3.7699 8.82821 5.22864 10.2881 7.02026 10.2881C8.81189 10.2881 10.2706 8.82821 10.2706 7.03517C10.2706 5.24212 8.81189 3.78223 7.02026 3.78223ZM7.02026 4.37368C8.4925 4.37368 9.67965 5.56176 9.67965 7.03517C9.67965 8.50857 8.4925 9.69666 7.02026 9.69666C5.54802 9.69666 4.36087 8.50857 4.36087 7.03517C4.36087 5.56176 5.54802 4.37368 7.02026 4.37368Z" fill="#5C5D68" stroke="#5C5D68" stroke-width="0.5"/>
</svg>
