<svg width="101" height="29" viewBox="0 0 101 29" fill="none" xmlns="http://www.w3.org/2000/svg">
<path d="M86.487 28.7332C83.9413 28.7332 81.5924 28.1427 79.4403 26.9617C77.3145 25.7544 75.6217 24.0879 74.362 21.962C73.1285 19.81 72.5117 17.3955 72.5117 14.7185C72.5117 12.0415 73.1285 9.64013 74.362 7.51431C75.6217 5.38848 77.3145 3.73506 79.4403 2.55405C81.5924 1.34679 83.9413 0.743164 86.487 0.743164C89.059 0.743164 91.4079 1.34679 93.5338 2.55405C95.6858 3.73506 97.3786 5.38848 98.6121 7.51431C99.8456 9.64013 100.462 12.0415 100.462 14.7185C100.462 17.3955 99.8456 19.81 98.6121 21.962C97.3786 24.0879 95.6858 25.7544 93.5338 26.9617C91.4079 28.1427 89.059 28.7332 86.487 28.7332ZM86.487 24.8358C88.2979 24.8358 89.912 24.429 91.3292 23.6155C92.7464 22.7756 93.8487 21.5946 94.636 20.0724C95.4496 18.524 95.8564 16.7393 95.8564 14.7185C95.8564 12.6976 95.4496 10.9261 94.636 9.40393C93.8487 7.88173 92.7464 6.71384 91.3292 5.90026C89.912 5.08667 88.2979 4.67988 86.487 4.67988C84.6762 4.67988 83.0621 5.08667 81.6449 5.90026C80.2277 6.71384 79.1123 7.88173 78.2987 9.40393C77.5113 10.9261 77.1177 12.6976 77.1177 14.7185C77.1177 16.7393 77.5113 18.524 78.2987 20.0724C79.1123 21.5946 80.2277 22.7756 81.6449 23.6155C83.0621 24.429 84.6762 24.8358 86.487 24.8358Z" fill="#01025C"/>
<path d="M63.3404 28.4578L57.0417 17.5137H53.6168V28.4578H49.1289V1.09766H58.577C60.6766 1.09766 62.4481 1.46508 63.8916 2.19994C65.3613 2.93479 66.4504 3.91897 67.159 5.15247C67.8939 6.38597 68.2613 7.76382 68.2613 9.28602C68.2613 11.0707 67.7364 12.6978 66.6866 14.1675C65.6631 15.611 64.0753 16.5952 61.9232 17.1201L68.6944 28.4578H63.3404ZM53.6168 13.9313H58.577C60.2567 13.9313 61.5164 13.5114 62.3563 12.6716C63.2223 11.8318 63.6554 10.7032 63.6554 9.28602C63.6554 7.8688 63.2355 6.76652 62.3956 5.97918C61.5558 5.16559 60.2829 4.7588 58.577 4.7588H53.6168V13.9313Z" fill="#01025C"/>
<path d="M44.8473 9.24665C44.8473 10.6376 44.5192 11.9499 43.8631 13.1834C43.207 14.4169 42.1572 15.4273 40.7137 16.2146C39.2703 16.9757 37.42 17.3563 35.163 17.3563H30.2027V28.4578H25.7148V1.09766H35.163C37.2625 1.09766 39.0341 1.46508 40.4775 2.19994C41.9472 2.90854 43.0364 3.8796 43.745 5.1131C44.4798 6.3466 44.8473 7.72445 44.8473 9.24665ZM35.163 13.6951C36.8689 13.6951 38.1417 13.3146 38.9816 12.5535C39.8214 11.7661 40.2413 10.6639 40.2413 9.24665C40.2413 6.25475 38.5485 4.7588 35.163 4.7588H30.2027V13.6951H35.163Z" fill="#01025C"/>
<path d="M15.5625 14.4037C17.0322 14.6662 18.2789 15.4404 19.3024 16.7264C20.326 18.0124 20.8377 19.469 20.8377 21.0961C20.8377 22.4871 20.4703 23.7469 19.7354 24.8754C19.0268 25.9777 17.9902 26.8569 16.6254 27.513C15.2607 28.1429 13.6729 28.4578 11.862 28.4578H0.917969V1.09766H11.3503C13.2136 1.09766 14.8146 1.41259 16.153 2.04247C17.4915 2.67234 18.5019 3.5253 19.1843 4.60133C19.8667 5.65112 20.2078 6.83213 20.2078 8.14437C20.2078 9.71905 19.7879 11.0313 18.9481 12.0811C18.1083 13.1309 16.9797 13.9051 15.5625 14.4037ZM5.40582 12.5929H10.9566C12.4263 12.5929 13.5679 12.2648 14.3815 11.6087C15.2214 10.9263 15.6413 9.95526 15.6413 8.69551C15.6413 7.46201 15.2214 6.50407 14.3815 5.82171C13.5679 5.1131 12.4263 4.7588 10.9566 4.7588H5.40582V12.5929ZM11.4684 24.7967C12.9905 24.7967 14.1847 24.4292 15.0508 23.6944C15.9168 22.9595 16.3499 21.936 16.3499 20.6237C16.3499 19.2853 15.8906 18.2223 14.972 17.435C14.0535 16.6477 12.8331 16.254 11.3109 16.254H5.40582V24.7967H11.4684Z" fill="#01025C"/>
<circle cx="86.3753" cy="14.6863" r="4.14479" fill="#01025C"/>
</svg>
