<svg width="17" height="13" viewBox="0 0 17 13" fill="none" xmlns="http://www.w3.org/2000/svg">
<path d="M1.52734 0.820312C0.699219 0.820312 0.0273438 1.49219 0.0273438 2.32031C0.0273438 2.79219 0.249219 3.23594 0.627344 3.52031L7.42734 8.62031C7.78359 8.88594 8.27109 8.88594 8.62734 8.62031L15.4273 3.52031C15.8055 3.23594 16.0273 2.79219 16.0273 2.32031C16.0273 1.49219 15.3555 0.820312 14.5273 0.820312H1.52734ZM0.0273438 4.32031V10.8203C0.0273438 11.9234 0.924219 12.8203 2.02734 12.8203H14.0273C15.1305 12.8203 16.0273 11.9234 16.0273 10.8203V4.32031L9.22734 9.42031C8.51484 9.95469 7.53984 9.95469 6.82734 9.42031L0.0273438 4.32031Z" fill="#01025C"/>
</svg>
