<svg width="15" height="16" viewBox="0 0 15 16" fill="none" xmlns="http://www.w3.org/2000/svg">
<path d="M0.540795 8.53989C-0.0771737 8.92202 -0.0197518 9.94103 0.639233 10.2373L4.47556 11.9702V15.0302C4.47556 15.5663 4.87478 15.9988 5.3697 15.9988C5.63494 15.9988 5.8865 15.8714 6.05603 15.6493L7.75134 13.4483L11.1392 14.9768C11.656 15.2109 12.2549 14.8435 12.3396 14.2452L14.0896 1.92225C14.1416 1.56382 13.9967 1.20242 13.7205 0.99803C13.4443 0.793635 13.0834 0.775862 12.7908 0.956559L0.540795 8.53989ZM1.9654 9.29526L11.3033 3.51593L5.29861 10.7853L5.33142 10.8149L1.9654 9.29526ZM11.1283 13.4335L6.57283 11.3748L12.4271 4.28612L11.1283 13.4335Z" fill="#1E3050"/>
</svg>
