<svg width="17" height="14" viewBox="0 0 17 14" fill="none" xmlns="http://www.w3.org/2000/svg">
<path d="M4.89663 10.5044C3.9582 10.4871 3.13153 10.004 2.64 9.27582C2.91344 9.26145 3.17979 9.21804 3.43524 9.14827L3.40178 8.17569C2.37028 7.96889 1.54492 7.18996 1.26923 6.18358C1.54849 6.25967 1.84055 6.3047 2.14106 6.31433L3.8879 6.37034L2.43499 5.39894C1.68787 4.89942 1.19747 4.04693 1.19747 3.08087C1.19747 2.82881 1.2307 2.5851 1.29291 2.35355C2.97455 4.10238 5.29601 5.23104 7.88193 5.36064L8.54326 5.39379L8.39411 4.74865C8.34721 4.54574 8.32204 4.33226 8.32204 4.11302C8.32204 2.57508 9.56809 1.32812 11.1043 1.32812C11.9046 1.32812 12.6271 1.66592 13.1352 2.2078L13.3248 2.41007L13.5968 2.35634C13.8191 2.31243 14.0377 2.25822 14.2519 2.19422C14.1371 2.29118 14.0143 2.37908 13.8847 2.45679L14.2011 3.38211C14.3036 3.36985 14.4054 3.35544 14.5065 3.33892C14.3743 3.45283 14.2372 3.56114 14.0957 3.6634L13.8772 3.82123L13.889 4.09048C13.8948 4.22419 13.8977 4.35856 13.8977 4.49361C13.8977 8.62013 10.763 13.3402 5.0591 13.3402C3.99555 13.3402 2.97721 13.1513 2.03372 12.806C3.2128 12.6016 4.29262 12.1066 5.19609 11.3976L6.30139 10.5303L4.89663 10.5044Z" stroke="#5C5D68"/>
</svg>
