<svg width="23" height="9" viewBox="0 0 23 9" fill="none" xmlns="http://www.w3.org/2000/svg">
<path d="M21.4305 1.83893L2.69506 1.84065L7.13363 6.93901C7.27526 7.0696 7.35932 7.25111 7.36735 7.44368C7.37538 7.63624 7.30673 7.82413 7.17646 7.96608C7.04597 8.10783 6.86461 8.19195 6.67219 8.19999C6.47978 8.20803 6.29204 8.13932 6.1502 8.00895L0.340995 1.64518C0.267121 1.57705 0.208159 1.49434 0.167829 1.40226C0.127499 1.31019 0.106677 1.21074 0.106677 1.11021C0.106677 1.00967 0.127499 0.910231 0.167829 0.818154C0.208159 0.726077 0.267121 0.643365 0.340995 0.575239L5.04778 0.575239C5.18581 0.447728 5.18809 0.747974 5.3759 0.75181C5.56371 0.755645 5.66115 0.442198 5.79387 0.575238L5.9807 0.900248C6.11096 1.0422 6.22245 0.655668 6.21442 0.848235C6.20639 1.0408 6.12233 1.22231 5.9807 1.3529L0.259965 0.661216L1.40745 0.548778L21.4305 0.384917C21.6187 0.391566 21.797 0.471069 21.9278 0.606684C22.0586 0.742298 22.1318 0.923432 22.1318 1.11192C22.1318 1.30041 22.0586 1.48155 21.9278 1.61716C21.797 1.75277 21.6187 1.83228 21.4305 1.83893Z" fill="#01025C" fill-opacity="0.4"/>
</svg>
