<svg width="23" height="8" viewBox="0 0 23 8" fill="none" xmlns="http://www.w3.org/2000/svg">
<path d="M1.24137 6.38373L19.9768 6.38201L15.5382 1.28365C15.3966 1.15305 15.3126 0.971545 15.3045 0.778978C15.2965 0.586412 15.3651 0.398527 15.4954 0.256575C15.6259 0.114831 15.8073 0.0307041 15.9997 0.0226671C16.1921 0.0146301 16.3798 0.0833391 16.5217 0.213708L22.3309 6.57748C22.4048 6.64561 22.4637 6.72832 22.504 6.82039C22.5444 6.91247 22.5652 7.01191 22.5652 7.11245C22.5652 7.21298 22.5444 7.31243 22.504 7.4045C22.4637 7.49658 22.4048 7.57929 22.3309 7.64742L17.6241 7.64742C17.4861 7.77493 17.4838 7.47468 17.296 7.47085C17.1082 7.46701 17.0107 7.78046 16.878 7.64742L16.6912 7.32241C16.5609 7.18046 16.4494 7.56699 16.4575 7.37442C16.4655 7.18186 16.5495 7.00035 16.6912 6.86975L22.4119 7.56144L21.2644 7.67388L1.24137 7.83774C1.05314 7.83109 0.874844 7.75159 0.744035 7.61597C0.613227 7.48036 0.540122 7.29923 0.540122 7.11073C0.540122 6.92224 0.613226 6.74111 0.744034 6.6055C0.874842 6.46988 1.05314 6.39038 1.24137 6.38373Z" fill="#01025C" fill-opacity="0.4"/>
</svg>
