<svg width="125" height="25" viewBox="0 0 125 25" fill="none" xmlns="http://www.w3.org/2000/svg">
<g opacity="0.6">
<path d="M13.3954 8.83454V10.4195C12.0756 9.2638 10.3599 8.53735 8.38034 8.53735C4.05816 8.53735 0.296875 12.0705 0.296875 16.6602C0.296875 21.25 4.05816 24.8162 8.38034 24.8162C10.3599 24.8162 12.0756 24.0897 13.3954 22.901V24.519H16.8928V8.83454H13.3954ZM8.6113 21.5141C6.00479 21.5141 3.8602 19.3348 3.8602 16.6602C3.8602 14.0187 6.00479 11.8394 8.6113 11.8394C11.2838 11.8394 13.3954 14.0187 13.3954 16.6602C13.3954 19.3348 11.2838 21.5141 8.6113 21.5141Z" fill="#0F0F0F" fill-opacity="0.7"/>
<path d="M31.4891 0.0839844V10.4192C30.1694 9.26349 28.4537 8.53705 26.4741 8.53705C22.1519 8.53705 18.3906 12.0702 18.3906 16.6599C18.3906 21.2497 22.1519 24.8158 26.4741 24.8158C28.4537 24.8158 30.1694 24.0894 31.4891 22.9007V24.5186H34.9865V0.0839844H31.4891ZM26.7051 21.5138C24.0986 21.5138 21.954 19.3345 21.954 16.6599C21.954 14.0184 24.0986 11.8391 26.7051 11.8391C29.3776 11.8391 31.4891 14.0184 31.4891 16.6599C31.4891 19.3345 29.3776 21.5138 26.7051 21.5138Z" fill="#0F0F0F" fill-opacity="0.7"/>
<path d="M44.7658 24.915C49.418 24.915 53.0803 21.2167 53.0803 16.726C53.0803 12.2023 49.418 8.53711 44.7658 8.53711C40.1467 8.53711 36.4844 12.2023 36.4844 16.726C36.4844 21.2167 40.1467 24.915 44.7658 24.915ZM44.7658 21.58C42.0604 21.58 40.0477 19.3346 40.0477 16.726C40.0477 14.1175 42.0604 11.9051 44.7658 11.9051C47.5043 11.9051 49.5169 14.1175 49.5169 16.726C49.5169 19.3346 47.5043 21.58 44.7658 21.58Z" fill="#0F0F0F" fill-opacity="0.7"/>
<path d="M63.1218 8.53705C61.1422 8.53705 59.4265 9.26349 58.1068 10.4192V0.0839844H54.6094V24.5186H58.1068V22.9007C59.4265 24.0894 61.1422 24.8158 63.1218 24.8158C67.444 24.8158 71.2053 21.2497 71.2053 16.6599C71.2053 12.0702 67.444 8.53705 63.1218 8.53705ZM62.8908 21.5138C60.2183 21.5138 58.1068 19.3345 58.1068 16.6599C58.1068 14.0184 60.2183 11.8391 62.8908 11.8391C65.4973 11.8391 67.6419 14.0184 67.6419 16.6599C67.6419 19.3345 65.4973 21.5138 62.8908 21.5138Z" fill="#0F0F0F" fill-opacity="0.7"/>
<path d="M84.7313 8.83454V10.4195C83.4116 9.2638 81.6959 8.53735 79.7163 8.53735C75.3941 8.53735 71.6328 12.0705 71.6328 16.6602C71.6328 21.25 75.3941 24.8162 79.7163 24.8162C81.6959 24.8162 83.4116 24.0897 84.7313 22.901V24.519H88.2287V8.83454H84.7313ZM79.9472 21.5141C77.3407 21.5141 75.1961 19.3348 75.1961 16.6602C75.1961 14.0187 77.3407 11.8394 79.9472 11.8394C82.6198 11.8394 84.7313 14.0187 84.7313 16.6602C84.7313 19.3348 82.6198 21.5141 79.9472 21.5141Z" fill="#0F0F0F" fill-opacity="0.7"/>
<path d="M98.0002 24.915C100.97 24.915 103.576 23.4291 105.061 21.1177L102.091 19.3346C101.233 20.7214 99.7156 21.58 98.0002 21.58C95.3277 21.58 93.2821 19.3676 93.2821 16.726C93.2821 14.0845 95.3277 11.9051 98.0002 11.9051C99.6829 11.9051 101.101 12.6645 101.992 13.9854L104.962 12.2353C103.477 9.99002 100.937 8.53711 98.0002 8.53711C93.4141 8.53711 89.7188 12.1693 89.7188 16.726C89.7188 21.2498 93.4141 24.915 98.0002 24.915Z" fill="#0F0F0F" fill-opacity="0.7"/>
<path d="M113.117 24.915C117.77 24.915 121.433 21.2167 121.433 16.726C121.433 12.2023 117.77 8.53711 113.117 8.53711C108.499 8.53711 104.836 12.2023 104.836 16.726C104.836 21.2167 108.499 24.915 113.117 24.915ZM113.117 21.58C110.412 21.58 108.4 19.3346 108.4 16.726C108.4 14.1175 110.412 11.9051 113.117 11.9051C115.856 11.9051 117.869 14.1175 117.869 16.726C117.869 19.3346 115.856 21.58 113.117 21.58Z" fill="#0F0F0F" fill-opacity="0.7"/>
<path d="M37.9698 3.89083C37.7746 3.55264 37.8904 3.12019 38.2285 2.92493C38.5664 2.72967 38.9986 2.84554 39.1938 3.18374L40.9605 6.24554C41.1557 6.58374 41.0399 7.01619 40.7018 7.21145C40.3639 7.4067 39.9317 7.29083 39.7365 6.95263L37.9698 3.89083Z" fill="#0F0F0F" fill-opacity="0.7"/>
<path d="M48.635 3.18374C48.8301 2.84554 49.2623 2.72967 49.6003 2.92493C49.9383 3.12019 50.0541 3.55264 49.859 3.89083L48.0922 6.95263C47.8971 7.29082 47.4649 7.40671 47.1269 7.21145C46.7888 7.01619 46.6731 6.58374 46.8682 6.24554L48.635 3.18374Z" fill="#0F0F0F" fill-opacity="0.7"/>
<path d="M43.2344 2.66999C43.2344 2.27947 43.5507 1.96289 43.9411 1.96289C44.3313 1.96289 44.6477 2.27947 44.6477 2.66999V6.20544C44.6477 6.59596 44.3313 6.91254 43.9411 6.91254C43.5507 6.91254 43.2344 6.59596 43.2344 6.20544V2.66999Z" fill="#0F0F0F" fill-opacity="0.7"/>
<path d="M123.636 13.127C123.955 13.1623 124.246 12.9316 124.251 12.6101C124.274 11.3323 123.913 10.072 123.207 8.99642C122.5 7.92093 121.489 7.08887 120.307 6.60364C120.01 6.48154 119.683 6.65667 119.588 6.96404C119.494 7.27141 119.668 7.59415 119.963 7.7223C120.886 8.1238 121.678 8.78706 122.235 9.63596C122.792 10.4848 123.086 11.4746 123.088 12.482C123.089 12.8036 123.316 13.0916 123.636 13.127Z" fill="#0F0F0F" fill-opacity="0.7"/>
</g>
</svg>
