<svg width="131" height="27" viewBox="0 0 131 27" fill="none" xmlns="http://www.w3.org/2000/svg">
<g opacity="0.6">
<path d="M40.2283 4.79883C41.695 4.79883 42.9682 5.04078 44.0481 5.52468C45.1441 6.00859 45.9822 6.70218 46.5624 7.60546C47.1427 8.50875 47.4328 9.5814 47.4328 10.8234C47.4328 12.0493 47.1427 13.122 46.5624 14.0414C45.9822 14.9447 45.1441 15.6383 44.0481 16.1222C42.9682 16.606 41.695 16.848 40.2283 16.848H36.4085V21.7354H33.2656V4.79883H40.2283ZM40.0832 14.1866C41.4532 14.1866 42.4928 13.8962 43.2019 13.3155C43.9111 12.7348 44.2657 11.9042 44.2657 10.8234C44.2657 9.74266 43.9111 8.91199 43.2019 8.33132C42.4928 7.75064 41.4532 7.46029 40.0832 7.46029H36.4085V14.1866H40.0832Z" fill="#0F0F0F" fill-opacity="0.7"/>
<path d="M55.4442 21.9007C54.1386 21.9007 52.9621 21.6185 51.9144 21.0539C50.8668 20.4894 50.0449 19.7071 49.4485 18.707C48.8682 17.6908 48.5781 16.5455 48.5781 15.2713C48.5781 13.997 48.8682 12.8599 49.4485 11.8598C50.0449 10.8597 50.8668 10.0774 51.9144 9.51282C52.9621 8.94832 54.1386 8.66602 55.4442 8.66602C56.7658 8.66602 57.9504 8.94832 58.998 9.51282C60.0457 10.0774 60.8596 10.8597 61.4398 11.8598C62.0361 12.8599 62.3344 13.997 62.3344 15.2713C62.3344 16.5455 62.0361 17.6908 61.4398 18.707C60.8596 19.7071 60.0457 20.4894 58.998 21.0539C57.9504 21.6185 56.7658 21.9007 55.4442 21.9007ZM55.4442 19.3119C56.5562 19.3119 57.475 18.9408 58.2003 18.1989C58.9254 17.4569 59.2881 16.481 59.2881 15.2713C59.2881 14.0615 58.9254 13.0857 58.2003 12.3436C57.475 11.6017 56.5562 11.2307 55.4442 11.2307C54.332 11.2307 53.4133 11.6017 52.6881 12.3436C51.9789 13.0857 51.6243 14.0615 51.6243 15.2713C51.6243 16.481 51.9789 17.4569 52.6881 18.1989C53.4133 18.9408 54.332 19.3119 55.4442 19.3119Z" fill="#0F0F0F" fill-opacity="0.7"/>
<path d="M71.7732 8.66602C73.0304 8.66602 74.1506 8.94023 75.1337 9.48864C76.133 10.0371 76.9147 10.8113 77.4788 11.8114C78.0429 12.8114 78.325 13.9647 78.325 15.2713C78.325 16.5778 78.0429 17.7392 77.4788 18.7554C76.9147 19.7554 76.133 20.5296 75.1337 21.0782C74.1506 21.6266 73.0304 21.9007 71.7732 21.9007C70.0326 21.9007 68.6546 21.3201 67.6391 20.1587V26.4253H64.6172V8.81114H67.4941V10.5049C67.9938 9.89189 68.6062 9.43219 69.3315 9.12576C70.0729 8.81923 70.8868 8.66602 71.7732 8.66602ZM71.4348 19.3119C72.5469 19.3119 73.4575 18.9408 74.1667 18.1989C74.8919 17.4569 75.2546 16.481 75.2546 15.2713C75.2546 14.0615 74.8919 13.0857 74.1667 12.3436C73.4575 11.6017 72.5469 11.2307 71.4348 11.2307C70.7095 11.2307 70.0568 11.4001 69.4766 11.7388C68.8963 12.0614 68.437 12.5292 68.0985 13.1421C67.76 13.7551 67.5908 14.4648 67.5908 15.2713C67.5908 16.0778 67.76 16.7875 68.0985 17.4005C68.437 18.0134 68.8963 18.4892 69.4766 18.8279C70.0568 19.1506 70.7095 19.3119 71.4348 19.3119Z" fill="#0F0F0F" fill-opacity="0.7"/>
<path d="M87.7264 8.66602C88.9836 8.66602 90.1037 8.94023 91.0869 9.48864C92.0857 10.0371 92.8675 10.8113 93.4316 11.8114C93.9956 12.8114 94.2777 13.9647 94.2777 15.2713C94.2777 16.5778 93.9956 17.7392 93.4316 18.7554C92.8675 19.7554 92.0857 20.5296 91.0869 21.0782C90.1037 21.6266 88.9836 21.9007 87.7264 21.9007C85.9857 21.9007 84.6077 21.3201 83.5923 20.1587V26.4253H80.5703V8.81114H83.4472V10.5049C83.9469 9.89189 84.5594 9.43219 85.2846 9.12576C86.026 8.81923 86.8399 8.66602 87.7264 8.66602ZM87.3879 19.3119C88.5 19.3119 89.4107 18.9408 90.1198 18.1989C90.8451 17.4569 91.2078 16.481 91.2078 15.2713C91.2078 14.0615 90.8451 13.0857 90.1198 12.3436C89.4107 11.6017 88.5 11.2307 87.3879 11.2307C86.6626 11.2307 86.0099 11.4001 85.4297 11.7388C84.8495 12.0614 84.3901 12.5292 84.0516 13.1421C83.7132 13.7551 83.5439 14.4648 83.5439 15.2713C83.5439 16.0778 83.7132 16.7875 84.0516 17.4005C84.3901 18.0134 84.8495 18.4892 85.4297 18.8279C86.0099 19.1506 86.6626 19.3119 87.3879 19.3119Z" fill="#0F0F0F" fill-opacity="0.7"/>
<path d="M102.674 19.3361C104.076 19.3361 105.244 18.8683 106.18 17.9327L107.774 19.7958C107.21 20.4894 106.485 21.0136 105.599 21.3684C104.712 21.7233 103.713 21.9007 102.601 21.9007C101.183 21.9007 99.9335 21.6185 98.854 21.0539C97.7737 20.4894 96.9359 19.7071 96.3397 18.707C95.7591 17.6908 95.4688 16.5455 95.4688 15.2713C95.4688 14.0132 95.7508 12.8841 96.3148 11.8839C96.8954 10.8677 97.6855 10.0774 98.6841 9.51282C99.7001 8.94832 100.844 8.66602 102.117 8.66602C103.326 8.66602 104.422 8.93213 105.405 9.46446C106.405 9.98061 107.195 10.7307 107.774 11.7146C108.355 12.6824 108.645 13.8195 108.645 15.1261L98.7567 17.0617C99.0635 17.8037 99.555 18.3682 100.232 18.7554C100.909 19.1425 101.723 19.3361 102.674 19.3361ZM102.117 11.0855C101.006 11.0855 100.103 11.4484 99.4098 12.1743C98.7328 12.9001 98.3947 13.876 98.3947 15.1019V15.1261L105.695 13.7228C105.486 12.9324 105.059 12.2953 104.414 11.8114C103.785 11.3275 103.02 11.0855 102.117 11.0855Z" fill="#0F0F0F" fill-opacity="0.7"/>
<path d="M113.83 10.6984C114.7 9.34347 116.232 8.66602 118.424 8.66602V11.5452C118.166 11.4969 117.932 11.4727 117.723 11.4727C116.546 11.4727 115.627 11.8195 114.967 12.5131C114.306 13.1905 113.976 14.1744 113.976 15.4649V21.7314H110.953V8.81114H113.83V10.6984Z" fill="#0F0F0F" fill-opacity="0.7"/>
<path d="M124.432 21.9007C123.385 21.9007 122.361 21.7637 121.362 21.4894C120.362 21.2152 119.565 20.8684 118.969 20.449L120.129 18.1505C120.71 18.5376 121.402 18.8521 122.208 19.0941C123.03 19.3199 123.836 19.4328 124.626 19.4328C126.431 19.4328 127.333 18.957 127.333 18.0054C127.333 17.5537 127.1 17.2391 126.632 17.0617C126.181 16.8843 125.448 16.7149 124.432 16.5536C123.368 16.3923 122.498 16.2068 121.821 15.9971C121.161 15.7874 120.58 15.4245 120.08 14.9084C119.597 14.3761 119.355 13.6422 119.355 12.7066C119.355 11.4807 119.864 10.5049 120.879 9.77899C121.91 9.03704 123.296 8.66602 125.037 8.66602C125.923 8.66602 126.81 8.77087 127.696 8.98059C128.583 9.17412 129.307 9.44028 129.872 9.77899L128.711 12.0776C127.615 11.4323 126.382 11.1097 125.013 11.1097C124.126 11.1097 123.449 11.2468 122.981 11.5211C122.53 11.7791 122.304 12.1259 122.304 12.5614C122.304 13.0453 122.547 13.3921 123.03 13.6018C123.53 13.7954 124.295 13.9809 125.327 14.1583C126.359 14.3196 127.205 14.5051 127.865 14.7148C128.527 14.9245 129.091 15.2794 129.557 15.7794C130.041 16.2794 130.283 16.9892 130.283 17.9085C130.283 19.1183 129.759 20.0861 128.711 20.812C127.664 21.5379 126.237 21.9007 124.432 21.9007Z" fill="#0F0F0F" fill-opacity="0.7"/>
</g>
<path d="M13.5892 0.447266C10.1695 0.447266 6.88991 1.8068 4.47184 4.22678C2.05378 6.64676 0.695312 9.92897 0.695312 13.3513C0.695312 16.7737 2.05377 20.0559 4.47184 22.4759C6.88991 24.8959 10.1695 26.2554 13.5892 26.2554V13.3513V0.447266Z" fill="#7E8A9F"/>
<path d="M23.9044 4.96289C21.6817 4.96289 19.55 5.84658 17.9782 7.41958C16.4065 8.99256 15.5234 11.126 15.5234 13.3505C15.5234 15.5751 16.4065 17.7085 17.9782 19.2815C19.55 20.8545 21.6817 21.7382 23.9044 21.7382V13.3505V4.96289Z" fill="#0F0F0F" fill-opacity="0.5"/>
</svg>
