<svg width="109" height="26" viewBox="0 0 109 26" fill="none" xmlns="http://www.w3.org/2000/svg">
<g opacity="0.6">
<path d="M9.38638 25.5621C11.2532 25.5621 12.8646 25.184 14.2202 24.4278C15.5981 23.6715 16.6649 22.6039 17.4205 21.2249C18.1762 19.8237 18.554 18.1778 18.554 16.2872V0.806641H13.3868V9.91479H13.2867C12.7756 9.20304 12.0866 8.64699 11.2199 8.24663C10.3754 7.84627 9.44194 7.64609 8.41961 7.64609C6.81944 7.64609 5.39707 8.01309 4.1525 8.74708C2.93015 9.48107 1.96337 10.5042 1.25219 11.8165C0.563228 13.1065 0.21875 14.6079 0.21875 16.3205C0.21875 18.0998 0.585458 19.6902 1.31887 21.0914C2.05228 22.4927 3.09683 23.5937 4.45252 24.3944C5.83045 25.1729 7.47506 25.5621 9.38638 25.5621ZM9.38638 21.0914C8.20848 21.0914 7.26394 20.6688 6.55275 19.8237C5.84156 18.9562 5.48597 17.8886 5.48597 16.6208C5.48597 15.3752 5.84156 14.3298 6.55275 13.4847C7.26394 12.6172 8.20848 12.1835 9.38638 12.1835C10.5865 12.1835 11.531 12.6172 12.22 13.4847C12.9312 14.3298 13.2867 15.3752 13.2867 16.6208C13.2867 17.8886 12.9312 18.9562 12.22 19.8237C11.531 20.6688 10.5865 21.0914 9.38638 21.0914Z" fill="#0F0F0F" fill-opacity="0.65"/>
<path d="M30.8233 25.5684C29.0675 25.5684 27.5452 25.2348 26.2561 24.5675C24.9893 23.878 24.0115 22.955 23.3226 21.7983C22.6336 20.6195 22.2891 19.3184 22.2891 17.8949V8.05273H27.4563V17.7614C27.4563 18.6511 27.7674 19.4295 28.3897 20.0968C29.0343 20.7418 29.8343 21.0643 30.79 21.0643C31.7234 21.0643 32.5013 20.7418 33.1236 20.0968C33.768 19.4295 34.0903 18.6511 34.0903 17.7614V8.05273H39.2576V17.8949C39.2576 19.3184 38.9241 20.6195 38.2574 21.7983C37.5907 22.955 36.6239 23.878 35.3571 24.5675C34.0903 25.2348 32.579 25.5684 30.8233 25.5684Z" fill="#0F0F0F" fill-opacity="0.65"/>
<path d="M43.1172 25.1618V0.806641H48.2845V25.1618H43.1172Z" fill="#0F0F0F" fill-opacity="0.65"/>
<path d="M58.9643 25.5664C57.4308 25.5664 56.0862 25.1772 54.9305 24.3987C53.7971 23.6202 52.9081 22.5749 52.2636 21.2626C51.6191 19.928 51.2969 18.4268 51.2969 16.7585C51.2969 15.0236 51.6635 13.4779 52.3969 12.1211C53.1526 10.742 54.2193 9.65221 55.5973 8.85147C56.9974 8.05075 58.6532 7.65039 60.5644 7.65039C62.4758 7.65039 64.0982 8.05075 65.4317 8.85147C66.7874 9.65221 67.8208 10.7309 68.5319 12.0877C69.2654 13.4445 69.6321 14.968 69.6321 16.6584V25.1661H64.5649V22.4303H64.4315C63.9426 23.3199 63.2647 24.065 62.398 24.6656C61.5313 25.2661 60.3867 25.5664 58.9643 25.5664ZM60.4978 21.0958C61.6757 21.0958 62.6091 20.6731 63.2981 19.828C64.0093 18.9605 64.3649 17.8818 64.3649 16.5917C64.3649 15.3684 64.0093 14.3341 63.2981 13.489C62.6091 12.6215 61.6757 12.1878 60.4978 12.1878C59.2755 12.1878 58.3086 12.6215 57.5975 13.489C56.9085 14.3341 56.5641 15.3684 56.5641 16.5917C56.5641 17.8595 56.9085 18.9271 57.5975 19.7946C58.3086 20.662 59.2755 21.0958 60.4978 21.0958Z" fill="#0F0F0F" fill-opacity="0.65"/>
<path d="M73.4531 25.1618V0.806641H78.6204V25.1618H73.4531Z" fill="#0F0F0F" fill-opacity="0.65"/>
<path d="M82.4412 25.1656V8.05029H87.6418V25.1656H82.4412ZM85.0415 6.11523C84.2192 6.11523 83.508 5.81496 82.908 5.21442C82.3079 4.61389 82.0078 3.90213 82.0078 3.07918C82.0078 2.23397 82.3079 1.51111 82.908 0.910565C83.508 0.310034 84.2192 0.00976562 85.0415 0.00976562C85.886 0.00976562 86.5972 0.310034 87.1751 0.910565C87.7751 1.51111 88.0751 2.23397 88.0751 3.07918C88.0751 3.90213 87.7751 4.61389 87.1751 5.21442C86.5972 5.81496 85.886 6.11523 85.0415 6.11523Z" fill="#0F0F0F" fill-opacity="0.65"/>
<path d="M90.1562 25.1683L95.3568 17.695C94.0011 17.0055 92.9677 16.0935 92.2564 14.9591C91.5453 13.8026 91.1896 12.5014 91.1896 11.0557V8.05298H96.3569V10.7888C96.3569 11.5895 96.5791 12.2901 97.0236 12.8906C97.4904 13.4689 98.0682 13.8582 98.7571 14.0584L102.691 8.05298H108.525L103.591 15.226C105.102 15.8488 106.258 16.7719 107.058 17.9952C107.881 19.2185 108.292 20.5975 108.292 22.1323V25.1683H103.091V22.299C103.091 21.4094 102.791 20.6531 102.191 20.0304C101.591 19.3854 100.88 19.0184 100.057 18.9293L95.9568 25.1683H90.1562Z" fill="#0F0F0F" fill-opacity="0.65"/>
</g>
</svg>
