<?xml version="1.0" encoding="UTF-8"?>
<svg version="1.1" xmlns="http://www.w3.org/2000/svg" width="1250" height="250">
<path d="M0 0 C2.13390636 1.83781409 3.39449852 3.6419197 5 6 C5.721875 5.38125 6.44375 4.7625 7.1875 4.125 C11.18122804 1.10751659 13.98860461 -0.26049195 19 0.125 C22.99211513 0.80162968 25.27092648 1.88105884 28 5 C33.57761336 15.21063091 31.99282834 30.18570792 29 41 C27.5311818 43.68568583 26.7019272 44.36627657 24 46 C21.25 45.9375 21.25 45.9375 19 45 C16.28669067 39.57338133 18.03954681 31.76271913 19 26 C19.1205911 24.10617153 19.20040482 22.20951576 19.25 20.3125 C19.28867187 18.91451172 19.28867187 18.91451172 19.328125 17.48828125 C18.94789772 14.60489106 18.24537994 13.76675948 16 12 C12.26027628 13.05354691 12.26027628 13.05354691 9.89453125 15.95703125 C8.3860529 21.08849253 8.24301522 26.37777886 7.87695312 31.6953125 C7.1742476 40.17842427 7.1742476 40.17842427 4 44 C1.5 44.625 1.5 44.625 -1 44 C-3.72963274 40.35748903 -4.38093967 37.65193032 -4.44140625 33.1484375 C-4.46783203 32.05015625 -4.49425781 30.951875 -4.52148438 29.8203125 C-4.53501953 28.68335937 -4.54855469 27.54640625 -4.5625 26.375 C-4.59690626 24.11183279 -4.63949419 21.84877084 -4.69140625 19.5859375 C-4.70373291 18.5861084 -4.71605957 17.5862793 -4.72875977 16.55615234 C-4.82576671 13.7588943 -4.82576671 13.7588943 -7 11 C-9.58380177 10.74969023 -9.58380177 10.74969023 -12 11 C-15.01082351 17.70410034 -15.4653131 23.51422645 -15.5625 30.8125 C-15.59691515 32.86083866 -15.63950837 34.90906097 -15.69140625 36.95703125 C-15.70373291 37.85397705 -15.71605957 38.75092285 -15.72875977 39.67504883 C-16 42 -16 42 -18 45 C-21.5 45.375 -21.5 45.375 -25 45 C-29.00939539 38.98590691 -28.19475631 30.73991231 -28.1875 23.6875 C-28.18669434 22.86515869 -28.18588867 22.04281738 -28.18505859 21.19555664 C-28.01338838 4.01338838 -28.01338838 4.01338838 -24 0 C-21.5625 -0.375 -21.5625 -0.375 -19 0 C-17.1875 2 -17.1875 2 -16 4 C-15.236875 3.360625 -14.47375 2.72125 -13.6875 2.0625 C-9.31178892 -1.29560385 -5.21180354 -1.70346886 0 0 Z " fill="#A6A6A6" transform="translate(270,55)"/>
<path d="M0 0 C2.875 2.5625 2.875 2.5625 5 5 C7.23296126 5.22458462 7.23296126 5.22458462 9.125 3.0625 C12.66858765 0.52036104 15.71830635 -0.17908224 20 0 C23.51566437 0.87891609 25.94175492 1.59382672 28.17919922 4.56689453 C31.27882795 10.38645126 31.54439157 15.42483996 31.375 21.9375 C31.37371094 22.87529297 31.37242187 23.81308594 31.37109375 24.77929688 C31.28238817 31.87081486 31.01566683 38.97649975 27 45 C24.5625 45.8125 24.5625 45.8125 22 46 C19 44 19 44 18.1875 40.75 C17.68225274 35.52593396 18.76055769 30.50783942 19.578125 25.359375 C20.09808585 21.21894602 19.93537628 18.05329721 19 14 C18.34 13.34 17.68 12.68 17 12 C14.39719432 12.32041397 14.39719432 12.32041397 12 13 C9.36315483 19.64943564 8.57318438 25.52402184 8.30859375 32.66796875 C7.89383096 37.1463569 7.23363259 40.76636741 4 44 C1.5 44.3125 1.5 44.3125 -1 44 C-3.24623372 40.63064942 -3.26984579 39.36730063 -3.34375 35.4140625 C-3.37339844 34.31835938 -3.40304687 33.22265625 -3.43359375 32.09375 C-3.45550781 30.9490625 -3.47742188 29.804375 -3.5 28.625 C-3.54352142 26.36700623 -3.59530565 24.10915319 -3.65625 21.8515625 C-3.68428711 20.34843506 -3.68428711 20.34843506 -3.71289062 18.81494141 C-4.01208126 15.88155021 -4.77638291 13.66887739 -6 11 C-8.37305578 10.58219121 -8.37305578 10.58219121 -11 11 C-13.67630541 14.53870585 -14.3734125 17.17421584 -14.40625 21.5625 C-14.42816406 22.60664062 -14.45007813 23.65078125 -14.47265625 24.7265625 C-14.48167969 25.80679688 -14.49070312 26.88703125 -14.5 28 C-14.5179259 30.145986 -14.54871913 32.29191162 -14.59375 34.4375 C-14.60438477 35.85869141 -14.60438477 35.85869141 -14.61523438 37.30859375 C-15.07539519 40.52738363 -16.03152335 42.42459561 -18 45 C-21.0625 45.4375 -21.0625 45.4375 -24 45 C-28.7817941 40.2182059 -27.22276047 32.23463664 -27.24023438 25.89306641 C-27.24990542 23.77075482 -27.28093753 21.64942698 -27.3125 19.52734375 C-27.36660483 12.40941269 -27.1818315 6.46414189 -24 0 C-22.02 0 -20.04 0 -18 0 C-17.34 1.65 -16.68 3.3 -16 5 C-15.236875 4.195625 -14.47375 3.39125 -13.6875 2.5625 C-9.46427031 -1.4643004 -5.47033263 -1.61332076 0 0 Z " fill="#A6A6A6" transform="translate(919,55)"/>
<path d="M0 0 C2.875 2.5625 2.875 2.5625 5 5 C7.23296126 5.22458462 7.23296126 5.22458462 9.125 3.0625 C12.66858765 0.52036104 15.71830635 -0.17908224 20 0 C23.51566437 0.87891609 25.94175492 1.59382672 28.17919922 4.56689453 C31.27882795 10.38645126 31.54439157 15.42483996 31.375 21.9375 C31.37371094 22.87529297 31.37242187 23.81308594 31.37109375 24.77929688 C31.28238817 31.87081486 31.01566683 38.97649975 27 45 C24.5625 45.8125 24.5625 45.8125 22 46 C19 44 19 44 18.1875 40.75 C17.68225274 35.52593396 18.76055769 30.50783942 19.578125 25.359375 C20.09808585 21.21894602 19.93537628 18.05329721 19 14 C18.34 13.34 17.68 12.68 17 12 C14.39719432 12.32041397 14.39719432 12.32041397 12 13 C9.36315483 19.64943564 8.57318438 25.52402184 8.30859375 32.66796875 C7.89383096 37.1463569 7.23363259 40.76636741 4 44 C1.5 44.3125 1.5 44.3125 -1 44 C-3.24623372 40.63064942 -3.26984579 39.36730063 -3.34375 35.4140625 C-3.37339844 34.31835938 -3.40304687 33.22265625 -3.43359375 32.09375 C-3.45550781 30.9490625 -3.47742188 29.804375 -3.5 28.625 C-3.54352142 26.36700623 -3.59530565 24.10915319 -3.65625 21.8515625 C-3.68428711 20.34843506 -3.68428711 20.34843506 -3.71289062 18.81494141 C-4.01208126 15.88155021 -4.77638291 13.66887739 -6 11 C-8.37305578 10.58219121 -8.37305578 10.58219121 -11 11 C-13.67630541 14.53870585 -14.3734125 17.17421584 -14.40625 21.5625 C-14.42816406 22.60664062 -14.45007813 23.65078125 -14.47265625 24.7265625 C-14.48167969 25.80679688 -14.49070312 26.88703125 -14.5 28 C-14.5179259 30.145986 -14.54871913 32.29191162 -14.59375 34.4375 C-14.60438477 35.85869141 -14.60438477 35.85869141 -14.61523438 37.30859375 C-15.07539519 40.52738363 -16.03152335 42.42459561 -18 45 C-21.0625 45.4375 -21.0625 45.4375 -24 45 C-28.7817941 40.2182059 -27.22276047 32.23463664 -27.24023438 25.89306641 C-27.24990542 23.77075482 -27.28093753 21.64942698 -27.3125 19.52734375 C-27.36660483 12.40941269 -27.1818315 6.46414189 -24 0 C-22.02 0 -20.04 0 -18 0 C-17.34 1.65 -16.68 3.3 -16 5 C-15.236875 4.195625 -14.47375 3.39125 -13.6875 2.5625 C-9.46427031 -1.4643004 -5.47033263 -1.61332076 0 0 Z " fill="#A6A6A6" transform="translate(336,55)"/>
<path d="M0 0 C1.4540625 0.0309375 1.4540625 0.0309375 2.9375 0.0625 C5.76910373 4.95768344 6.61580113 9.1088745 7.125 14.625 C7.24343262 15.8164563 7.24343262 15.8164563 7.36425781 17.03198242 C9.97211679 45.02130871 9.97211679 45.02130871 4.04296875 52.4296875 C1.9375 54.0625 1.9375 54.0625 -1 54.125 C-8.01353908 51.69173134 -10.9991194 45.37791514 -14.0625 39.0625 C-19.225 27.575 -19.225 27.575 -21.0625 22.0625 C-21.07708252 22.92004883 -21.09166504 23.77759766 -21.10668945 24.66113281 C-21.16785478 27.85210413 -21.24202762 31.04243587 -21.32495117 34.23291016 C-21.35814193 35.61202667 -21.38619217 36.99127711 -21.40893555 38.37060547 C-21.44258642 40.35672306 -21.49644729 42.34246559 -21.55078125 44.328125 C-21.57696533 45.52211914 -21.60314941 46.71611328 -21.63012695 47.94628906 C-22.08840002 51.24916731 -22.8219998 52.65246253 -25.0625 55.0625 C-27.3725 54.7325 -29.6825 54.4025 -32.0625 54.0625 C-34.55185976 49.26159189 -34.36768656 44.70949581 -34.3125 39.4375 C-34.30645752 38.51759277 -34.30041504 37.59768555 -34.29418945 36.64990234 C-34.20457758 30.30320928 -33.86551064 24.004649 -33.25 17.6875 C-33.18006836 16.92228027 -33.11013672 16.15706055 -33.03808594 15.36865234 C-32.48950377 10.43469124 -31.32041564 6.49830389 -29.0625 2.0625 C-27.1875 0.9375 -27.1875 0.9375 -25.0625 1.0625 C-17.53384538 4.45039458 -14.69471592 11.47262667 -11.4375 18.5625 C-11.04304688 19.40425781 -10.64859375 20.24601562 -10.2421875 21.11328125 C-8.40278517 25.05929637 -6.65659489 29.00998823 -5.0625 33.0625 C-5.1032666 32.30630371 -5.1440332 31.55010742 -5.18603516 30.77099609 C-5.36501974 27.32699476 -5.5264215 23.88238333 -5.6875 20.4375 C-5.75195312 19.24769531 -5.81640625 18.05789062 -5.8828125 16.83203125 C-5.934375 15.67832031 -5.9859375 14.52460937 -6.0390625 13.3359375 C-6.09143066 12.27810059 -6.14379883 11.22026367 -6.19775391 10.13037109 C-5.97469001 5.07076644 -5.66086098 0.11552778 0 0 Z M-23.0625 17.0625 C-22.0625 19.0625 -22.0625 19.0625 -22.0625 19.0625 Z " fill="#A6A6A6" transform="translate(67.0625,45.9375)"/>
<path d="M0 0 C2.8125 -0.3125 2.8125 -0.3125 6 0 C12.71792741 6.95785339 11.33623952 21.29467711 11.3125 30.1875 C11.32861328 31.40630859 11.34472656 32.62511719 11.36132812 33.88085938 C11.36497695 40.60564957 11.08660795 45.96412732 8 52 C5 54 5 54 2.1875 54.0625 C-4.30441126 51.89852958 -7.04393999 46.20367726 -10.0625 40.375 C-13.16118779 34.10577079 -15.52921051 27.5347723 -18 21 C-17.98952637 21.82201904 -17.97905273 22.64403809 -17.96826172 23.4909668 C-17.92663241 27.22311331 -17.90065147 30.9552109 -17.875 34.6875 C-17.85824219 35.98107422 -17.84148438 37.27464844 -17.82421875 38.60742188 C-17.81777344 39.85458984 -17.81132813 41.10175781 -17.8046875 42.38671875 C-17.79421387 43.53358154 -17.78374023 44.68044434 -17.77294922 45.86206055 C-17.99941511 48.99191655 -18.66543968 51.18079905 -20 54 C-23.465 54.495 -23.465 54.495 -27 55 C-30.16891569 51.57604185 -30.37522299 49.13308059 -30.36328125 44.5390625 C-30.36263672 43.26160156 -30.36199219 41.98414063 -30.36132812 40.66796875 C-30.35302979 40.00200684 -30.34473145 39.33604492 -30.33618164 38.64990234 C-30.31298502 36.66647136 -30.31733139 34.68277923 -30.32226562 32.69921875 C-30.19362528 9.2866768 -30.19362528 9.2866768 -25 2 C-23.125 1 -23.125 1 -21 1 C-10.32302215 6.4148743 -6.47645401 21.57008939 -2 32 C-2.01047363 31.17274414 -2.02094727 30.34548828 -2.03173828 29.49316406 C-2.07330912 25.7454736 -2.09932992 21.99783168 -2.125 18.25 C-2.14175781 16.94804687 -2.15851562 15.64609375 -2.17578125 14.3046875 C-2.18222656 13.05429688 -2.18867187 11.80390625 -2.1953125 10.515625 C-2.20578613 9.36352539 -2.21625977 8.21142578 -2.22705078 7.02441406 C-2.00758762 4.10107034 -1.52728122 2.46267491 0 0 Z M-1 35 C0 37 0 37 0 37 Z " fill="#A6A6A6" transform="translate(554,148)"/>
<path d="M0 0 C1.60875 0.185625 1.60875 0.185625 3.25 0.375 C9.35216211 10.54527018 9.35452909 22.1270869 10 33.6875 C10.08544067 35.06542725 10.08544067 35.06542725 10.17260742 36.47119141 C10.43486275 42.17898015 10.46832586 48.0086734 8.25 53.375 C5.25 55.375 5.25 55.375 1.625 55.125 C0.51125 54.8775 -0.6025 54.63 -1.75 54.375 C-3.25606515 51.36286971 -2.87160331 48.26217378 -2.84765625 44.9609375 C-2.8462413 44.23129791 -2.84482635 43.50165833 -2.84336853 42.74990845 C-2.83776531 40.41656415 -2.82521235 38.08331536 -2.8125 35.75 C-2.80748541 34.16927222 -2.80292243 32.58854293 -2.79882812 31.0078125 C-2.78779484 27.13017146 -2.77052811 23.25260193 -2.75 19.375 C-3.01699707 19.9949585 -3.28399414 20.61491699 -3.55908203 21.25366211 C-4.09057861 22.47194702 -4.09057861 22.47194702 -4.6328125 23.71484375 C-4.98230957 24.52042725 -5.33180664 25.32601074 -5.69189453 26.15600586 C-7.01097731 28.92230566 -8.19712005 30.6480518 -10.75 32.375 C-13.6875 33.125 -13.6875 33.125 -16.75 32.375 C-19.59185936 29.08482593 -21.38205133 25.47884602 -22.75 21.375 C-22.76458252 22.23778564 -22.77916504 23.10057129 -22.79418945 23.98950195 C-22.85527754 27.19349647 -22.92943549 30.39684625 -23.01245117 33.6003418 C-23.04568549 34.98629377 -23.07372226 36.37238061 -23.09643555 37.75854492 C-23.13000617 39.75206843 -23.18388 41.74521741 -23.23828125 43.73828125 C-23.26446533 44.93751221 -23.29064941 46.13674316 -23.31762695 47.37231445 C-23.75 50.375 -23.75 50.375 -25.05151367 52.30932617 C-27.91327331 54.10486747 -30.59104087 53.03063303 -33.75 52.375 C-36.52498599 46.32339595 -35.82388655 40.29160725 -35.5 33.8125 C-35.42048096 32.06610229 -35.42048096 32.06610229 -35.33935547 30.28442383 C-34.15812092 6.78312092 -34.15812092 6.78312092 -28.75 1.375 C-24.92862337 1.51920289 -22.54239353 1.67582924 -19.625 4.25 C-16.9115825 8.7723625 -14.82028872 13.530185 -12.75 18.375 C-12.43546875 17.57835937 -12.1209375 16.78171875 -11.796875 15.9609375 C-5.57555781 0.55755578 -5.57555781 0.55755578 0 0 Z " fill="#A6A6A6" transform="translate(717.75,147.625)"/>
<path d="M0 0 C3.6183075 3.80386173 3.77564614 6.15812467 3.7265625 11.23828125 C3.28641575 14.77729905 1.71654971 16.89275605 -0.5625 19.5625 C-1.5525 20.2225 -2.5425 20.8825 -3.5625 21.5625 C-2.593125 22.34625 -1.62375 23.13 -0.625 23.9375 C2.05391973 26.1034351 3.2608685 27.37023736 3.78125 30.8828125 C4.0790432 36.22820053 3.93647493 39.77737343 0.4375 44 C-5.21776542 49.59790979 -11.97836706 52.64493931 -19.9375 52.8125 C-24.17068542 52.74983772 -27.01108069 52.01467047 -30.5625 49.5625 C-35.37855415 43.08573752 -34.77645782 36.25357305 -34.8125 28.5 C-34.833125 27.41783203 -34.85375 26.33566406 -34.875 25.22070312 C-34.91517674 16.84887472 -34.47210754 8.31436235 -29.1875 1.5 C-21.6893878 -4.03432091 -7.75310729 -6.30288578 0 0 Z M-23.5625 9.5625 C-24.67953004 12.46677811 -24.8078571 13.88304957 -23.75 16.8125 C-22.66850632 18.71324924 -22.66850632 18.71324924 -20.5625 19.5625 C-15.7359443 19.69525399 -12.39371843 19.16097727 -8.4375 16.3125 C-6.31017205 13.74714929 -6.31017205 13.74714929 -6.5625 10.875 C-7.4516283 8.24386031 -7.4516283 8.24386031 -10.5625 6.5625 C-15.7655706 6.14289753 -19.45395103 5.95195696 -23.5625 9.5625 Z M-23.125 30.125 C-25.10224912 33.47772677 -25.04936939 35.73709766 -24.5625 39.5625 C-23.71030077 41.66492444 -23.71030077 41.66492444 -21.5625 42.5625 C-16.78108966 43.11118643 -14.49158168 43.00170225 -10.125 40.9375 C-7.3494429 38.75105464 -7.3494429 38.75105464 -6.5625 35.5 C-6.29092803 32.36893274 -6.29092803 32.36893274 -8.5625 29.5625 C-13.48880438 27.92039854 -18.58163465 27.35465528 -23.125 30.125 Z " fill="#A6A6A6" transform="translate(629.5625,150.4375)"/>
<path d="M0 0 C2.625 0.5 2.625 0.5 4.6796875 3.0546875 C6.75562551 6.73134879 7.73204349 10.00818028 8.375 14.125 C8.55712036 15.25083496 8.55712036 15.25083496 8.74291992 16.39941406 C9.8104779 23.99327477 9.91175051 31.59150623 9.9375 39.25 C9.94297852 40.46381348 9.94845703 41.67762695 9.95410156 42.92822266 C9.90808325 48.60513703 9.63413801 53.13496663 7.625 58.5 C4.16 58.995 4.16 58.995 0.625 59.5 C-0.035 57.85 -0.695 56.2 -1.375 54.5 C-2.220625 55.304375 -3.06625 56.10875 -3.9375 56.9375 C-7.35411762 59.73944576 -9.87256076 60.5 -14.375 60.5 C-18.93056581 59.61977203 -22.37795361 58.42035051 -25.8125 55.25 C-29.00131204 49.63769081 -29.7401264 43.92953173 -29.6875 37.5625 C-29.68258545 36.8602832 -29.6776709 36.15806641 -29.67260742 35.43457031 C-29.55071204 30.05117031 -28.99352925 26.19529383 -26.375 21.5 C-22.02913526 17.36612867 -19.40387933 16.36056509 -13.5 16.375 C-11.92605469 16.37113281 -11.92605469 16.37113281 -10.3203125 16.3671875 C-7.81823315 16.48001336 -5.75743077 16.77491238 -3.375 17.5 C-3.6225 16.2934375 -3.6225 16.2934375 -3.875 15.0625 C-4.45945568 10.89825324 -4.86980611 6.69327211 -4.375 2.5 C-2.375 0.5 -2.375 0.5 0 0 Z M-17.375 30.5 C-19.15038153 36.90869429 -18.6042587 41.75909564 -15.375 47.5 C-13.44857392 49.83204711 -13.44857392 49.83204711 -10.0625 49.9375 C-5.47042522 49.39267757 -4.19730969 48.06939167 -1.375 44.5 C0.07339593 40.15481221 0.07327804 36.25235963 -1.0625 31.8125 C-2.75517445 28.83016882 -4.4751706 27.32082311 -7.375 25.5 C-12.34270227 24.38226699 -14.52981755 26.5483577 -17.375 30.5 Z " fill="#A6A6A6" transform="translate(1032.375,41.5)"/>
<path d="M0 0 C2.42130331 3.63195496 2.21022785 5.38349348 2.125 9.6875 C2.10695313 10.86699219 2.08890625 12.04648437 2.0703125 13.26171875 C2.03550781 14.61716797 2.03550781 14.61716797 2 16 C2.825 15.505 3.65 15.01 4.5 14.5 C9.81407362 12.22253988 13.83061637 12.2073406 19.25 14.1875 C24.34289113 17.54417825 26.39083424 21.21663074 28 27 C28.84219253 35.81364281 28.74187946 44.28674803 24 52 C20.02664317 56.07523778 16.13736637 57.80916372 10.5 58.3125 C5.78534001 57.89154821 3.29615469 56.29615469 0 53 C-0.391875 53.825 -0.78375 54.65 -1.1875 55.5 C-1.785625 56.325 -2.38375 57.15 -3 58 C-5.6875 58.3125 -5.6875 58.3125 -8 58 C-12.19987804 51.00020326 -11.19292948 41.91624387 -11.1875 34.0625 C-11.18669434 32.86423584 -11.18588867 31.66597168 -11.18505859 30.43139648 C-11.01898092 6.29640345 -11.01898092 6.29640345 -7 0 C-4.27584084 -1.36207958 -2.87220643 -0.86166193 0 0 Z M2.625 24.875 C-1.08724851 29.72947882 -0.58554976 35.09057021 0 41 C1.17516755 43.85779383 2.80763109 45.80763109 5 48 C7.83073436 48.50169415 7.83073436 48.50169415 11 48 C14.32027427 45.19621284 16.82602168 43.04759099 17.203125 38.609375 C17.29514036 32.99643794 17.28661395 28.80351269 14 24 C9.99576409 21.99788204 6.12376857 22.11281428 2.625 24.875 Z " fill="#A6A6A6" transform="translate(526,43)"/>
<path d="M0 0 C6.61369338 5.51141115 9.20005807 12.26363336 10.2824707 20.70214844 C10.48709789 22.96764605 10.62983696 25.22853089 10.75 27.5 C10.80542969 28.25539063 10.86085937 29.01078125 10.91796875 29.7890625 C11.21900397 35.09822908 10.56755069 39.41113978 9 44.5 C8 45.5 8 45.5 4.9375 45.5625 C3.968125 45.541875 2.99875 45.52125 2 45.5 C1.34 44.18 0.68 42.86 0 41.5 C-0.86625 42.16 -1.7325 42.82 -2.625 43.5 C-8.27704971 46.73634748 -14.71254704 46.23881342 -21 45.5 C-24.84142635 44.24766687 -26.60211414 42.08356593 -28.875 38.75 C-30.73747554 33.36951512 -30.90575592 29.46247116 -28.5 24.25 C-24.85824295 20.24406724 -21.15914094 17.99068681 -15.76171875 17.15234375 C-10.24962844 16.93338334 -6.02156185 18.30877301 -1 20.5 C-1.61754259 19.18397477 -2.24428742 17.87226444 -2.875 16.5625 C-3.22304687 15.83160156 -3.57109375 15.10070312 -3.9296875 14.34765625 C-4.8684977 12.33667541 -4.8684977 12.33667541 -7 11.5 C-12.19823898 11.06085604 -16.19628996 11.42271998 -21 13.5 C-24.1875 13.75 -24.1875 13.75 -27 13.5 C-27.66 12.84 -28.32 12.18 -29 11.5 C-28.9235729 7.37293634 -28.68877843 5.22813719 -25.8125 2.1875 C-18.51506665 -2.19096001 -7.90247332 -3.92518455 0 0 Z M-19 29.5 C-18.72965366 31.93717258 -18.72965366 31.93717258 -18 34.5 C-14.28494294 36.97670471 -11.30466152 37.0370338 -7 36.5 C-4.03490467 35.48957782 -4.03490467 35.48957782 -2 33.5 C-1.11341534 30.90877257 -1.11341534 30.90877257 -1 28.5 C-4.10001122 26.69883608 -6.42482097 26.2038499 -10 26.1875 C-10.845625 26.17074219 -11.69125 26.15398437 -12.5625 26.13671875 C-15.45330535 26.56755993 -16.82826275 27.59470274 -19 29.5 Z " fill="#A6A6A6" transform="translate(110,55.5)"/>
<path d="M0 0 C0.969375 0.144375 1.93875 0.28875 2.9375 0.4375 C5.46525351 4.22913027 5.16193035 7.24624031 5.0625 11.625 C5.05347656 12.37458984 5.04445313 13.12417969 5.03515625 13.89648438 C5.01162578 15.74362654 4.97575561 17.59060412 4.9375 19.4375 C5.700625 18.798125 6.46375 18.15875 7.25 17.5 C11.55377084 14.1971061 15.65406511 13.87807748 20.9375 14.4375 C25.5298941 16.31620668 27.58318618 19.13478854 29.9375 23.4375 C31.62565658 29.08471418 32.25129681 34.12537678 32.1875 40 C32.19910156 41.07411133 32.19910156 41.07411133 32.2109375 42.16992188 C32.19116666 47.60195978 31.92435657 53.24510655 28.125 57.4375 C25.9375 58.4375 25.9375 58.4375 23.3125 58.375 C20.9375 57.4375 20.9375 57.4375 19.796875 55.70898438 C18.78129731 53.0246279 18.74000638 51.02176169 18.8125 48.15625 C18.82796875 47.14949219 18.8434375 46.14273438 18.859375 45.10546875 C18.91145833 42.99348958 18.96354167 40.88151042 19.015625 38.76953125 C19.03109375 37.76277344 19.0465625 36.75601563 19.0625 35.71875 C19.08570313 34.80158203 19.10890625 33.88441406 19.1328125 32.93945312 C18.92623626 30.29321155 18.28256784 28.70134449 16.9375 26.4375 C12.85877345 26.01994058 12.85877345 26.01994058 9.31640625 27.68359375 C4.29466425 34.07102197 6.06311924 43.51911562 6.94140625 51.01953125 C6.93702248 54.85533084 6.35613985 56.49546428 3.9375 59.4375 C0.9375 60 0.9375 60 -2.0625 59.4375 C-10.31008252 50.95085711 -8.25988609 30.46834388 -8.24780273 19.12475586 C-8.15775759 12.92677424 -7.56069885 7.50880763 -4.8125 1.875 C-3.0625 0.4375 -3.0625 0.4375 0 0 Z " fill="#A6A6A6" transform="translate(759.0625,41.5625)"/>
<path d="M0 0 C1.21429687 -0.02578125 2.42859375 -0.0515625 3.6796875 -0.078125 C8.26187819 0.35827411 10.86559743 1.81068277 13.875 5.25 C16.36355746 9.23169194 16.43698396 12.64823653 16.125 17.25 C13.98781675 22.98664976 10.94994488 25.93607215 5.4375 28.5 C-0.31136526 29.80162987 -6.1860107 29.88853379 -11.875 28.25 C-10.91754012 30.86125422 -10.21878312 32.04164659 -7.8125 33.5 C-1.36198011 35.14694125 3.90108861 34.41483874 10.125 32.25 C13.875 32 13.875 32 17.125 32.25 C19.125 34.25 19.125 34.25 19.1875 37.625 C18.07681983 41.41437939 17.96505084 41.78488449 14.8125 43.625 C7.2481673 47.39896208 -2.27591291 47.32414511 -10.4609375 45.75390625 C-15.67737948 43.9851127 -19.48602135 40.99360095 -21.98046875 36.06640625 C-24.36126908 28.57052398 -24.12475865 18.81386004 -20.875 11.625 C-16.02027381 3.39970676 -9.32045033 0.11822981 0 0 Z M-10.875 13.25 C-11.8438059 16.38265479 -11.8438059 16.38265479 -11.875 19.25 C-7.86093168 21.92604554 -4.59482743 22.07677249 0.125 21.25 C2.57641166 19.82000986 4.11815064 18.30830703 6.125 16.25 C5.55047254 12.31924356 5.55047254 12.31924356 3.125 9.25 C-2.82524528 8.65497547 -6.29315012 9.00340743 -10.875 13.25 Z " fill="#A6A6A6" transform="translate(1200.875,54.75)"/>
<path d="M0 0 C1.21429687 -0.02578125 2.42859375 -0.0515625 3.6796875 -0.078125 C8.26187819 0.35827411 10.86559743 1.81068277 13.875 5.25 C16.36355746 9.23169194 16.43698396 12.64823653 16.125 17.25 C13.98781675 22.98664976 10.94994488 25.93607215 5.4375 28.5 C-0.31136526 29.80162987 -6.1860107 29.88853379 -11.875 28.25 C-10.91754012 30.86125422 -10.21878312 32.04164659 -7.8125 33.5 C-1.36198011 35.14694125 3.90108861 34.41483874 10.125 32.25 C13.875 32 13.875 32 17.125 32.25 C19.125 34.25 19.125 34.25 19.1875 37.625 C18.07681983 41.41437939 17.96505084 41.78488449 14.8125 43.625 C7.2481673 47.39896208 -2.27591291 47.32414511 -10.4609375 45.75390625 C-15.67737948 43.9851127 -19.48602135 40.99360095 -21.98046875 36.06640625 C-24.36126908 28.57052398 -24.12475865 18.81386004 -20.875 11.625 C-16.02027381 3.39970676 -9.32045033 0.11822981 0 0 Z M-10.875 13.25 C-11.8438059 16.38265479 -11.8438059 16.38265479 -11.875 19.25 C-7.86093168 21.92604554 -4.59482743 22.07677249 0.125 21.25 C2.57641166 19.82000986 4.11815064 18.30830703 6.125 16.25 C5.55047254 12.31924356 5.55047254 12.31924356 3.125 9.25 C-2.82524528 8.65497547 -6.29315012 9.00340743 -10.875 13.25 Z " fill="#A6A6A6" transform="translate(979.875,54.75)"/>
<path d="M0 0 C3.58362887 2.82918069 5.03316444 5.52013281 5.69140625 10.0546875 C5.97463544 15.48172428 5.0735735 18.68977209 1.375 22.875 C-3.681545 26.77275344 -7.3390459 28.01916449 -13.625 28 C-14.8934375 28.00386719 -14.8934375 28.00386719 -16.1875 28.0078125 C-18.47198944 27.88333711 -20.43491574 27.51377457 -22.625 26.875 C-21.66754012 29.48625422 -20.96878312 30.66664659 -18.5625 32.125 C-11.83037941 33.8438393 -6.20712243 32.86205583 0.375 30.875 C3.6875 30.625 3.6875 30.625 6.375 30.875 C7.035 31.535 7.695 32.195 8.375 32.875 C8.15196793 39.00838192 8.15196793 39.00838192 5.75 41.6875 C-2.76147137 45.94323569 -14.16372916 46.67491385 -23.25 43.75 C-28.72061656 40.71076858 -31.65426638 36.86533567 -33.625 30.875 C-34.5300405 21.80108748 -33.56724819 14.05335682 -29.0625 6.125 C-20.79935967 -1.50251415 -10.71066262 -3.32399875 0 0 Z M-21.625 11.875 C-22.5938059 15.00765479 -22.5938059 15.00765479 -22.625 17.875 C-18.57030191 20.57813206 -15.3801886 20.40057348 -10.625 19.875 C-7.58675425 18.95479268 -7.58675425 18.95479268 -5.625 16.875 C-4.46688612 13.92770463 -4.46688612 13.92770463 -4.625 10.875 C-5.43088748 8.81708091 -5.43088748 8.81708091 -7.625 7.875 C-13.5726872 7.19247852 -17.05137241 7.63602809 -21.625 11.875 Z " fill="#A6A6A6" transform="translate(696.625,56.125)"/>
<path d="M0 0 C4.46563312 4.21754239 6.07213039 8.31671253 6.453125 14.33203125 C6.6111027 26.48314905 6.6111027 26.48314905 3.25 32.125 C2.734375 33.011875 2.21875 33.89875 1.6875 34.8125 C-2.76987261 39.04128939 -8.28057827 40.82173768 -14.3125 41.5625 C-20.35969173 40.79285742 -25.05232386 39.67505213 -29.625 35.5 C-34.3456637 28.0024753 -35.97363407 20.57388227 -34.31640625 11.83984375 C-32.6372972 5.75959173 -29.47488314 1.28086496 -24.75 -2.875 C-16.36044224 -7.25216057 -7.49819313 -5.11240441 0 0 Z M-20.75 7.125 C-23.3924136 11.59677686 -24.12171166 15.84562563 -23.1875 20.9375 C-22.13015209 24.60938091 -21.01902115 26.94565257 -17.75 29.125 C-14.15619396 30.27195938 -12.48253748 30.441323 -9 28.9375 C-5.83329892 26.38654635 -4.91200342 24.34940477 -4.37890625 20.3203125 C-4.08925702 13.453885 -4.08925702 13.453885 -6.9375 7.4375 C-11.96798621 3.30132245 -15.41545378 3.18207453 -20.75 7.125 Z " fill="#A6A6A6" transform="translate(878.75,59.875)"/>
<path d="M0 0 C4.46563312 4.21754239 6.07213039 8.31671253 6.453125 14.33203125 C6.6111027 26.48314905 6.6111027 26.48314905 3.25 32.125 C2.734375 33.011875 2.21875 33.89875 1.6875 34.8125 C-2.76987261 39.04128939 -8.28057827 40.82173768 -14.3125 41.5625 C-20.35969173 40.79285742 -25.05232386 39.67505213 -29.625 35.5 C-34.3456637 28.0024753 -35.97363407 20.57388227 -34.31640625 11.83984375 C-32.6372972 5.75959173 -29.47488314 1.28086496 -24.75 -2.875 C-16.36044224 -7.25216057 -7.49819313 -5.11240441 0 0 Z M-20.75 7.125 C-23.3924136 11.59677686 -24.12171166 15.84562563 -23.1875 20.9375 C-22.13015209 24.60938091 -21.01902115 26.94565257 -17.75 29.125 C-14.15619396 30.27195938 -12.48253748 30.441323 -9 28.9375 C-5.83329892 26.38654635 -4.91200342 24.34940477 -4.37890625 20.3203125 C-4.08925702 13.453885 -4.08925702 13.453885 -6.9375 7.4375 C-11.96798621 3.30132245 -15.41545378 3.18207453 -20.75 7.125 Z " fill="#A6A6A6" transform="translate(501.75,59.875)"/>
<path d="M0 0 C5.50573847 4.0170624 8.669779 8.53997738 9.8203125 15.328125 C10.42861188 21.97517822 10.11711329 28.39388357 6.8203125 34.328125 C1.63056941 40.45295693 -3.63123989 42.91462976 -11.6171875 43.640625 C-17.81971911 43.09654328 -22.32571821 41.67598852 -26.5546875 36.953125 C-32.27936797 29.94918632 -31.89760308 21.92516403 -31.1796875 13.328125 C-29.59914034 6.88021101 -26.63161656 2.99983233 -21.1796875 -0.671875 C-14.6778066 -4.46463886 -6.36126581 -3.65708399 0 0 Z M-17.1796875 9.328125 C-20.55651034 13.17071651 -20.68568158 16.96764874 -20.5390625 21.88671875 C-20.01167596 25.46950773 -18.5366799 27.63441941 -16.1796875 30.328125 C-13.30373914 32.65689862 -13.30373914 32.65689862 -9.7421875 32.265625 C-5.51937022 31.15435729 -4.4419117 29.98248716 -2.1796875 26.328125 C-0.49368749 21.27012496 -0.59448111 16.96054284 -2.3671875 12.015625 C-4.37456828 9.03916384 -5.92395167 7.79320612 -9.1796875 6.328125 C-12.86521894 6.328125 -14.21728502 7.1803832 -17.1796875 9.328125 Z " fill="#A6A6A6" transform="translate(611.1796875,57.671875)"/>
<path d="M0 0 C5.50573847 4.0170624 8.669779 8.53997738 9.8203125 15.328125 C10.42861188 21.97517822 10.11711329 28.39388357 6.8203125 34.328125 C1.63056941 40.45295693 -3.63123989 42.91462976 -11.6171875 43.640625 C-17.81971911 43.09654328 -22.32571821 41.67598852 -26.5546875 36.953125 C-32.27936797 29.94918632 -31.89760308 21.92516403 -31.1796875 13.328125 C-29.59914034 6.88021101 -26.63161656 2.99983233 -21.1796875 -0.671875 C-14.6778066 -4.46463886 -6.36126581 -3.65708399 0 0 Z M-17.1796875 9.328125 C-20.55651034 13.17071651 -20.68568158 16.96764874 -20.5390625 21.88671875 C-20.01167596 25.46950773 -18.5366799 27.63441941 -16.1796875 30.328125 C-13.30373914 32.65689862 -13.30373914 32.65689862 -9.7421875 32.265625 C-5.51937022 31.15435729 -4.4419117 29.98248716 -2.1796875 26.328125 C-0.49368749 21.27012496 -0.59448111 16.96054284 -2.3671875 12.015625 C-4.37456828 9.03916384 -5.92395167 7.79320612 -9.1796875 6.328125 C-12.86521894 6.328125 -14.21728502 7.1803832 -17.1796875 9.328125 Z " fill="#A6A6A6" transform="translate(205.1796875,57.671875)"/>
<path d="M0 0 C1.2065625 0.0309375 1.2065625 0.0309375 2.4375 0.0625 C2.7675 1.7125 3.0975 3.3625 3.4375 5.0625 C3.89898437 4.7015625 4.36046875 4.340625 4.8359375 3.96875 C9.56593929 0.60353134 13.26550654 -0.76001574 19.10546875 -0.41015625 C23.07735155 0.39486522 24.86437932 1.98730699 27.4375 5.0625 C32.89521587 14.67057014 31.19060742 28.1699641 29.1953125 38.58203125 C28.02655681 42.40759756 26.83001049 43.93231899 23.4375 46.0625 C20.6875 46 20.6875 46 18.4375 45.0625 C17.03635118 42.26020236 17.39600473 40.01174984 17.48046875 36.8828125 C17.50173828 35.64402344 17.52300781 34.40523437 17.54492188 33.12890625 C17.59815401 30.50884647 17.66319121 27.888999 17.74023438 25.26953125 C17.75763672 24.02816406 17.77503906 22.78679687 17.79296875 21.5078125 C17.82028076 20.36844238 17.84759277 19.22907227 17.87573242 18.05517578 C17.34716071 14.44557575 16.22725106 13.31537636 13.4375 11.0625 C10.21320648 12.02107375 8.71187696 12.69013128 6.6875 15.4375 C4.87563103 19.24242483 4.31966697 22.4918197 4.2265625 26.6875 C4.19820313 27.55890625 4.16984375 28.4303125 4.140625 29.328125 C4.08854756 31.15083535 4.04427429 32.97378542 4.0078125 34.796875 C3.96140625 36.10398437 3.96140625 36.10398437 3.9140625 37.4375 C3.89424316 38.22898438 3.87442383 39.02046875 3.85400391 39.8359375 C3.333505 42.61844045 2.38664876 44.02800796 0.4375 46.0625 C-2.625 46.4375 -2.625 46.4375 -5.5625 46.0625 C-9.17577808 42.44922192 -8.72314302 38.36844223 -8.75 33.4375 C-8.73572042 27.42579747 -8.35882977 21.47995182 -7.75 15.5 C-7.67998779 14.75089355 -7.60997559 14.00178711 -7.5378418 13.22998047 C-6.06253709 0.14786676 -6.06253709 0.14786676 0 0 Z " fill="#A6A6A6" transform="translate(430.5625,53.9375)"/>
<path d="M0 0 C3.04252423 1.14094659 3.77002308 2.22969708 5.5 4.9375 C8.04474453 12.40075993 7.83463589 20.46259417 7.8125 28.25 C7.82861328 29.40306641 7.84472656 30.55613281 7.86132812 31.74414062 C7.86197266 32.85595703 7.86261719 33.96777344 7.86328125 35.11328125 C7.86626221 36.11270752 7.86924316 37.11213379 7.87231445 38.1418457 C7.43621857 41.41642534 6.47542874 43.30723626 4.5 45.9375 C2 46.5625 2 46.5625 -0.5 45.9375 C-2.3125 43.4375 -2.3125 43.4375 -3.5 40.9375 C-4.675625 41.8965625 -4.675625 41.8965625 -5.875 42.875 C-10.59841722 46.58625639 -14.62737395 46.55994424 -20.5 45.9375 C-24.67671136 44.11493504 -26.09469832 42.69020312 -28.25 38.6875 C-31.35650661 28.77626463 -32.9122827 16.10470494 -30.5 5.9375 C-29.140625 3.63671875 -29.140625 3.63671875 -27.5 1.9375 C-24.4375 1.5 -24.4375 1.5 -21.5 1.9375 C-17.5336143 7.88707855 -18.18146114 15.04882866 -17.89453125 21.98828125 C-17.70829014 26.06631929 -17.47943658 29.95445789 -16.5 33.9375 C-13.24770785 34.95964896 -11.91076857 35.12421298 -8.75 33.6875 C-6.23420616 32.06461879 -6.23420616 32.06461879 -5.5 28.9375 C-5.45184124 26.97975718 -5.46263678 25.02031393 -5.5078125 23.0625 C-5.52457031 21.91265625 -5.54132813 20.7628125 -5.55859375 19.578125 C-5.60286741 17.15088665 -5.65495236 14.72377821 -5.71484375 12.296875 C-5.72902344 11.14703125 -5.74320312 9.9971875 -5.7578125 8.8125 C-5.79092529 7.23082031 -5.79092529 7.23082031 -5.82470703 5.6171875 C-5.5 2.9375 -5.5 2.9375 -4.14013672 1.06640625 C-2.5 -0.0625 -2.5 -0.0625 0 0 Z " fill="#A6A6A6" transform="translate(406.5,54.0625)"/>
<path d="M0 0 C2.4375 0.1875 2.4375 0.1875 5 1 C6.3125 3.0625 6.3125 3.0625 7 5 C7.78375 4.360625 8.5675 3.72125 9.375 3.0625 C14.08138569 -0.63537447 18.14406534 -0.6465543 24 0 C28.80702416 2.55692774 30.26011258 5.95432648 32 11 C34.32083668 20.70531701 33.95170625 33.88813367 29.6171875 42.86328125 C28 45 28 45 24.9375 45.9375 C23.968125 45.958125 22.99875 45.97875 22 46 C20 44 20 44 19.8046875 41.15844727 C19.82789063 39.97307373 19.85109375 38.7877002 19.875 37.56640625 C19.89046875 36.27798828 19.9059375 34.98957031 19.921875 33.66210938 C19.95923126 31.61021828 20.00008151 29.55841427 20.04101562 27.5065918 C20.07717438 25.52666221 20.10125047 23.54652357 20.125 21.56640625 C20.14820313 20.37990479 20.17140625 19.19340332 20.1953125 17.97094727 C20.23583684 14.81325474 20.23583684 14.81325474 18 12 C15.69102439 10.9994439 14.39765105 10.91564978 11.9375 11.4375 C8.40124361 14.28931967 7.26005841 18.96901755 6.69848633 23.35473633 C6.55631847 25.80086713 6.47810575 28.23762 6.4375 30.6875 C6.18263116 42.81736884 6.18263116 42.81736884 3 46 C0.125 46.375 0.125 46.375 -3 46 C-6.9108651 41.56039323 -6.4214695 36.64731135 -6.3125 31.0625 C-6.3019458 30.13115234 -6.2913916 29.19980469 -6.28051758 28.24023438 C-5.85372157 5.85372157 -5.85372157 5.85372157 0 0 Z " fill="#A6A6A6" transform="translate(805,54)"/>
<path d="M0 0 C2.5625 0.4375 2.5625 0.4375 4.375 2.9375 C4.766875 3.7625 5.15875 4.5875 5.5625 5.4375 C6.18125 4.798125 6.8 4.15875 7.4375 3.5 C11.09229857 -0.04730449 14.08716044 0.03038832 19.01953125 0.1015625 C23.12931106 0.64448272 24.91445273 2.3373471 27.5625 5.4375 C30.30181191 11.44441969 31.00726881 16.31975785 30.875 22.875 C30.87822266 23.66970703 30.88144531 24.46441406 30.88476562 25.28320312 C30.81416688 33.17100798 30.26070117 40.54935879 24.5625 46.4375 C21.625 46.0625 21.625 46.0625 18.5625 45.4375 C17.23118961 42.77487922 17.57589306 40.9542962 17.75390625 37.984375 C17.81126953 36.88996094 17.86863281 35.79554687 17.92773438 34.66796875 C18.05837482 32.36300558 18.19372807 30.05830429 18.33398438 27.75390625 C18.39005859 26.65433594 18.44613281 25.55476563 18.50390625 24.421875 C18.56263916 23.41866211 18.62137207 22.41544922 18.68188477 21.38183594 C18.54700152 18.05526765 17.8354429 15.50591844 16.5625 12.4375 C14.78536468 11.18054733 14.78536468 11.18054733 12.5625 11.4375 C9.61238134 12.37290348 8.09642687 13.44654931 6.61328125 16.19921875 C4.21239839 22.90997914 4.10531044 29.86909426 3.94042969 36.92382812 C3.9061084 38.11975586 3.9061084 38.11975586 3.87109375 39.33984375 C3.85876709 40.05648193 3.84644043 40.77312012 3.83374023 41.51147461 C3.5625 43.4375 3.5625 43.4375 1.5625 46.4375 C-1.9375 46.8125 -1.9375 46.8125 -5.4375 46.4375 C-11.4003638 37.4932043 -8.58526132 20.88778437 -6.76953125 10.68359375 C-4.42512689 0.79425354 -4.42512689 0.79425354 0 0 Z " fill="#A6A6A6" transform="translate(1140.4375,53.5625)"/>
<path d="M0 0 C2.5 0.625 2.5 0.625 4.3125 3.125 C4.704375 3.95 5.09625 4.775 5.5 5.625 C6.28375 4.8 7.0675 3.975 7.875 3.125 C11.47539322 0.11469498 14.58853737 0.01533541 19.1640625 0.26953125 C22.27626404 0.74312714 24.13022485 1.54247032 26.5 3.625 C30.97172811 9.85347843 30.71067846 15.8477199 30.75 23.25 C30.770625 24.19746094 30.79125 25.14492187 30.8125 26.12109375 C30.84771629 32.55687127 30.29429121 38.73319491 27.5 44.625 C24.5 46.625 24.5 46.625 21.8125 46.25 C21.049375 46.04375 20.28625 45.8375 19.5 45.625 C17.07694068 40.49381556 17.63480189 36.26134438 18.19921875 30.80078125 C18.48997683 27.73082908 18.64210378 24.70781619 18.6875 21.625 C18.70167969 20.75875 18.71585938 19.8925 18.73046875 19 C18.47920385 16.41069394 17.88268767 14.81670705 16.5 12.625 C14.70350035 11.5296469 14.70350035 11.5296469 12.5 11.625 C9.57114827 12.88022217 7.93297467 13.83777334 6.3828125 16.65625 C5.16032681 20.76726384 5.11233806 24.73115388 5 29 C4.61456661 43.51043339 4.61456661 43.51043339 1.5 46.625 C-1.375 46.9375 -1.375 46.9375 -4.5 46.625 C-6.64644123 44.46947297 -7.43229817 43.09025583 -7.87231445 40.06640625 C-7.8693335 39.11636719 -7.86635254 38.16632813 -7.86328125 37.1875 C-7.86263672 36.12660156 -7.86199219 35.06570312 -7.86132812 33.97265625 C-7.84521484 32.86792969 -7.82910156 31.76320313 -7.8125 30.625 C-7.81733398 29.01431641 -7.81733398 29.01431641 -7.82226562 27.37109375 C-7.65377335 1.91344334 -7.65377335 1.91344334 0 0 Z " fill="#A6A6A6" transform="translate(136.5,53.375)"/>
<path d="M0 0 C1.96066406 -0.03867187 1.96066406 -0.03867187 3.9609375 -0.078125 C8.77671409 0.35313858 11.26036112 1.88536112 14.625 5.25 C14.25 8.875 14.25 8.875 13.625 12.25 C9.56991088 12.95184235 6.56899026 13.35924726 2.625 12.25 C-2.38665275 11.88551616 -5.35016503 12.14512731 -9.375 15.25 C-12.21562177 19.51093266 -11.9883208 23.25347988 -11.375 28.25 C-10.27294623 31.10222791 -10.27294623 31.10222791 -7.375 32.25 C-2.30773908 32.7871938 2.62583832 32.50050902 7.625 31.5625 C10.625 31.25 10.625 31.25 12.625 32.3125 C13.625 34.25 13.625 34.25 13.625 37.1875 C12.39034998 40.96861568 10.93140129 42.12445632 7.625 44.25 C3.98456737 45.46347754 0.60444814 45.4724972 -3.1875 45.5 C-3.88681641 45.520625 -4.58613281 45.54125 -5.30664062 45.5625 C-10.10593956 45.59841618 -13.30541943 44.77761468 -17.375 42.25 C-22.91531585 36.40188882 -23.82973729 30.95118816 -23.80664062 23.06079102 C-23.58941073 15.8632989 -21.62146753 10.33224933 -16.3671875 5.34375 C-10.93001099 1.09031302 -6.94978581 0.08192282 0 0 Z " fill="#A5A5A5" transform="translate(1093.375,55.75)"/>
<path d="M0 0 C1.27746094 -0.02835938 2.55492187 -0.05671875 3.87109375 -0.0859375 C8.15897705 0.44948073 10.30227155 1.57199871 13.5625 4.375 C14.125 8 14.125 8 13.5625 11.375 C9.29336876 14.22108749 5.41729713 13.12824156 0.54296875 12.56445312 C-4.10923154 12.13561902 -6.75465732 12.43287944 -10.4375 15.375 C-12.94115725 19.24428848 -12.4934888 22.87881129 -12.1171875 27.2890625 C-11.19202027 30.12836884 -10.02617066 30.94085842 -7.4375 32.375 C-5.12217789 32.77328404 -5.12217789 32.77328404 -2.6875 32.625 C-1.38039063 32.59019531 -1.38039063 32.59019531 -0.046875 32.5546875 C2.35111057 32.38955676 4.6864656 32.10553799 7.0625 31.75 C8.2175 31.62625 9.3725 31.5025 10.5625 31.375 C12.5625 33.375 12.5625 33.375 12.9375 36.25 C12.5625 39.375 12.5625 39.375 10.875 41.625 C4.24501783 46.6422838 -3.52151459 46.03886714 -11.4375 45.375 C-16.31097334 44.16026859 -19.25427524 42.1659754 -21.875 37.875 C-25.31264498 30.17467525 -25.45907744 22.7521045 -22.9375 14.6875 C-20.39765371 8.30624918 -16.23267017 4.29849068 -10.1484375 1.21484375 C-6.69199248 0.14404306 -3.61610508 0.03641596 0 0 Z " fill="#A6A6A6" transform="translate(733.4375,55.625)"/>
<path d="M0 0 C0.96421875 -0.020625 1.9284375 -0.04125 2.921875 -0.0625 C9.09118563 -0.09602886 13.61614999 0.71343246 19.25 3.25 C19.745 6.715 19.745 6.715 20.25 10.25 C18.3532244 12.2292441 16.86460301 13.18233728 14.12109375 13.484375 C10.31528882 13.50945444 6.92583062 13.2859159 3.25 12.25 C3.394375 12.88679687 3.53875 13.52359375 3.6875 14.1796875 C5.25370316 22.38050124 5.53315215 30.47845589 5.625 38.8125 C5.65078125 39.96669434 5.6765625 41.12088867 5.703125 42.31005859 C5.70699219 43.95288818 5.70699219 43.95288818 5.7109375 45.62890625 C5.71915527 46.6144751 5.72737305 47.60004395 5.73583984 48.61547852 C5.11029125 52.00758647 3.99766026 53.21556349 1.25 55.25 C-2.5 55 -2.5 55 -5.75 54.25 C-11.19832769 41.99126269 -6.5763957 25.98943386 -4.75 13.25 C-5.73742187 13.27320313 -6.72484375 13.29640625 -7.7421875 13.3203125 C-9.02351562 13.33835938 -10.30484375 13.35640625 -11.625 13.375 C-13.53925781 13.40980469 -13.53925781 13.40980469 -15.4921875 13.4453125 C-18.75 13.25 -18.75 13.25 -20.75 11.25 C-21.25 8.375 -21.25 8.375 -20.75 5.25 C-14.23243201 -0.23068217 -8.11975215 0.04273554 0 0 Z " fill="#A6A6A6" transform="translate(658.75,147.75)"/>
<path d="M0 0 C3.125 -0.1875 3.125 -0.1875 6 0 C7.42258812 3.82320557 8.24042276 6.91281305 8 11 C9.2375 10.938125 10.475 10.87625 11.75 10.8125 C14.51081041 10.82718516 15.93942616 10.97274177 18.5 12.125 C20 14 20 14 20.5 17 C20 20 20 20 18.296875 21.67578125 C15.54313576 23.26339622 13.90134806 23.31189532 10.75 23.1875 C9.85796875 23.16042969 8.9659375 23.13335937 8.046875 23.10546875 C7.37140625 23.07066406 6.6959375 23.03585938 6 23 C6.309375 24.27875 6.61875 25.5575 6.9375 26.875 C9.02319961 36.31242095 11.09331092 47.90375351 7 57 C4.13879744 58.43060128 2.15989415 58.38692581 -1 58 C-4.87793311 53.57065915 -4.38145082 48.80379708 -4.25 43.25 C-4.24484375 42.3940625 -4.2396875 41.538125 -4.234375 40.65625 C-4.1663474 35.04397288 -3.69881073 29.56794358 -3 24 C-3.65194336 24.0191748 -4.30388672 24.03834961 -4.97558594 24.05810547 C-12.38105639 24.27591342 -12.38105639 24.27591342 -16 22 C-17.28788134 19.33224579 -17.04982756 18.16481425 -16.1875 15.3125 C-15 13 -15 13 -13 12 C-11.29297265 11.93003986 -9.58331997 11.91559846 -7.875 11.9375 C-6.96492187 11.94652344 -6.05484375 11.95554687 -5.1171875 11.96484375 C-4.41851563 11.97644531 -3.71984375 11.98804688 -3 12 C-2.95101562 11.38511719 -2.90203125 10.77023438 -2.8515625 10.13671875 C-2.77679687 9.32847656 -2.70203125 8.52023438 -2.625 7.6875 C-2.52058594 6.48673828 -2.52058594 6.48673828 -2.4140625 5.26171875 C-2 3 -2 3 0 0 Z " fill="#A6A6A6" transform="translate(640,43)"/>
<path d="M0 0 C1 1 1 1 1.36328125 3.28515625 C0.85233411 7.10352466 -0.85250703 8.06188332 -3.8125 10.4375 C-9.19995588 14.78322559 -12.08289011 19.06090348 -13 26 C-13.61908522 35.50223819 -13.16951489 44.36928422 -7 52 C-4.89929795 54.02826405 -2.78825195 56.02836642 -0.609375 57.97265625 C1 60 1 60 1.421875 62.62109375 C1.28265625 63.40613281 1.1434375 64.19117188 1 65 C-2 67 -2 67 -5.1875 67.0625 C-11.06622476 65.42416687 -15.11333307 62.06096405 -18.32421875 56.8515625 C-19.38795842 54.59754165 -20.23269344 52.37057342 -21 50 C-21.22429687 49.33613281 -21.44859375 48.67226562 -21.6796875 47.98828125 C-24.93551861 36.2806694 -23.91648463 23.02805321 -19 12 C-14.76379702 4.74622778 -9.05859455 -2.38384067 0 0 Z " fill="#A6A6A6" transform="translate(517,144)"/>
<path d="M0 0 C5.87551854 1.63743959 9.89176967 4.99726368 13.13671875 10.17578125 C19.35152675 23.18298165 19.77963477 38.66785265 15.08203125 52.1796875 C12.42702306 58.20859841 8.49798821 63.5957389 2.8125 67.0625 C-0.875 67.9375 -0.875 67.9375 -4.1875 68.0625 C-6.1875 66.0625 -6.1875 66.0625 -6.64453125 63.73046875 C-5.97836415 59.84164713 -3.93239525 58.77412338 -0.875 56.375 C4.47551503 51.86132348 7.02367398 48.07665573 7.8125 41.0625 C8.58773097 31.6260678 7.92825386 22.62672188 1.8125 15.0625 C-0.28820205 13.03423595 -2.39924805 11.03413358 -4.578125 9.08984375 C-6.1875 7.0625 -6.1875 7.0625 -6.609375 4.44140625 C-6.47015625 3.65636719 -6.3309375 2.87132812 -6.1875 2.0625 C-3.1875 0.0625 -3.1875 0.0625 0 0 Z " fill="#A6A6A6" transform="translate(739.1875,142.9375)"/>
<path d="M0 0 C2.4375 0.5 2.4375 0.5 4.4375 3.5 C5.82658614 8.85916965 5.65954335 14.24952862 5.6875 19.75 C5.708125 20.74902344 5.72875 21.74804688 5.75 22.77734375 C5.78344737 29.1741524 5.08372551 34.62836202 2.4375 40.5 C1.4375 41.5 1.4375 41.5 -1.625 41.5625 C-2.594375 41.541875 -3.56375 41.52125 -4.5625 41.5 C-9.80597817 32.4113045 -8.58613784 17.37381764 -6.1875 7.49609375 C-4.09028201 0.79810381 -4.09028201 0.79810381 0 0 Z " fill="#A6A6A6" transform="translate(1057.5625,59.5)"/>
<path d="M0 0 C2.4375 0.5 2.4375 0.5 4.4375 3.5 C5.82658614 8.85916965 5.65954335 14.24952862 5.6875 19.75 C5.708125 20.74902344 5.72875 21.74804688 5.75 22.77734375 C5.78344737 29.1741524 5.08372551 34.62836202 2.4375 40.5 C1.4375 41.5 1.4375 41.5 -1.625 41.5625 C-2.594375 41.541875 -3.56375 41.52125 -4.5625 41.5 C-9.80597817 32.4113045 -8.58613784 17.37381764 -6.1875 7.49609375 C-4.09028201 0.79810381 -4.09028201 0.79810381 0 0 Z " fill="#A6A6A6" transform="translate(228.5625,59.5)"/>
<path d="M0 0 C2.5 0.125 2.5 0.125 5 1 C10.10748643 7.38435804 8.44604466 20.72202625 7.65625 28.296875 C6.31033165 37.49398372 6.31033165 37.49398372 3 41 C0.4375 41.375 0.4375 41.375 -2 41 C-6.51480082 36.48519918 -5.22123238 29.28537778 -5.25 23.3125 C-5.270625 22.26126953 -5.29125 21.21003906 -5.3125 20.12695312 C-5.34470856 13.65705855 -4.86716094 7.88964028 -2 2 C-1.34 1.34 -0.68 0.68 0 0 Z " fill="#A6A6A6" transform="translate(1117,60)"/>
<path d="M0 0 C2.6875 -0.3125 2.6875 -0.3125 5 0 C8.96477767 5.89472236 8.44444906 11.96867647 8.375 18.875 C8.38660156 20.02097656 8.39820313 21.16695312 8.41015625 22.34765625 C8.36081842 36.63918158 8.36081842 36.63918158 4 41 C1.625 41.375 1.625 41.375 -1 41 C-7.62966175 32.37983448 -5.02418711 18.63093134 -3.765625 8.4609375 C-3.00402756 5.0182062 -2.14905793 2.7826868 0 0 Z " fill="#A6A6A6" transform="translate(578,162)"/>
<path d="M0 0 C2.6875 -0.3125 2.6875 -0.3125 5 0 C8.96477767 5.89472236 8.44444906 11.96867647 8.375 18.875 C8.38660156 20.02097656 8.39820313 21.16695312 8.41015625 22.34765625 C8.36081842 36.63918158 8.36081842 36.63918158 4 41 C1.625 41.375 1.625 41.375 -1 41 C-7.62966175 32.37983448 -5.02418711 18.63093134 -3.765625 8.4609375 C-3.00402756 5.0182062 -2.14905793 2.7826868 0 0 Z " fill="#A6A6A6" transform="translate(565,60)"/>
<path d="M0 0 C1.95231826 2.37673528 2.04095569 3.56996525 1.75 6.625 C1 9 1 9 -1 11 C-6.97716895 11.543379 -6.97716895 11.543379 -10 9.9375 C-11.65202607 6.73669949 -10.92006911 4.37358673 -10 1 C-6.88378631 -1.76996773 -3.81396072 -1.16077065 0 0 Z " fill="#A5A5A5" transform="translate(1123,44)"/>
<path d="M0 0 C1.50662097 3.01324195 1.17770373 5.68286377 1 9 C-1.32528287 11.32528287 -1.84665898 11.29511025 -5 11.3125 C-5.70125 11.32925781 -6.4025 11.34601563 -7.125 11.36328125 C-7.74375 11.24339844 -8.3625 11.12351563 -9 11 C-11.31567384 7.52648925 -11.59587577 6.08600528 -11 2 C-7.3569378 -1.32161553 -4.62849556 -1.36751005 0 0 Z " fill="#A7A7A7" transform="translate(585,146)"/>
<path d="M0 0 C1.50662097 3.01324195 1.17770373 5.68286377 1 9 C-1.32528287 11.32528287 -1.84665898 11.29511025 -5 11.3125 C-5.70125 11.32925781 -6.4025 11.34601562 -7.125 11.36328125 C-7.74375 11.24339844 -8.3625 11.12351562 -9 11 C-11.31567384 7.52648925 -11.59587577 6.08600528 -11 2 C-7.3569378 -1.32161553 -4.62849556 -1.36751005 0 0 Z " fill="#A7A7A7" transform="translate(572,44)"/>
<path d="M0 0 C2 2 2 2 2.3125 4.9375 C2 8 2 8 0.9375 9.875 C-2.06732099 11.61973477 -4.60810131 11.30835443 -8 11 C-10 9 -10 9 -10.375 5.5625 C-10 2 -10 2 -8.375 0 C-5.18820399 -1.34180884 -3.28890107 -0.92947204 0 0 Z " fill="#A6A6A6" transform="translate(1061,44)"/>
<path d="M0 0 C2 2 2 2 2.3125 4.9375 C2 8 2 8 0.9375 9.875 C-2.06732099 11.61973477 -4.60810131 11.30835443 -8 11 C-10 9 -10 9 -10.375 5.5625 C-10 2 -10 2 -8.375 0 C-5.18820399 -1.34180884 -3.28890107 -0.92947204 0 0 Z " fill="#A6A6A6" transform="translate(232,44)"/>
</svg>
