<svg xmlns="http://www.w3.org/2000/svg" viewBox="0 8.859999656677246 908.6400146484375 46.93000030517578" data-asc="0.9052734375" width="908.6400146484375" height="46.93000030517578"><defs/><g fill="#000000"><g transform="translate(0, 0)"><path d="M0 45.26L0 9.47L4.86 9.47L23.66 37.57L23.66 9.47L28.20 9.47L28.20 45.26L23.34 45.26L4.54 17.14L4.54 45.26L0 45.26ZM52.51 42.07Q50.07 44.14 47.81 45.00Q45.56 45.85 42.97 45.85Q38.70 45.85 36.40 43.76Q34.11 41.67 34.11 38.43Q34.11 36.52 34.97 34.95Q35.84 33.37 37.24 32.42Q38.65 31.47 40.41 30.98Q41.70 30.64 44.31 30.32Q49.63 29.69 52.15 28.81Q52.17 27.91 52.17 27.66Q52.17 24.98 50.93 23.88Q49.24 22.39 45.92 22.39Q42.82 22.39 41.35 23.47Q39.87 24.56 39.16 27.32L34.86 26.73Q35.45 23.97 36.79 22.28Q38.13 20.58 40.67 19.67Q43.21 18.75 46.56 18.75Q49.88 18.75 51.95 19.53Q54.03 20.31 55.00 21.50Q55.98 22.68 56.37 24.49Q56.59 25.61 56.59 28.54L56.59 34.40Q56.59 40.53 56.87 42.15Q57.15 43.77 57.98 45.26L53.39 45.26Q52.71 43.90 52.51 42.07M52.15 32.25Q49.76 33.23 44.97 33.91Q42.26 34.30 41.14 34.79Q40.01 35.28 39.40 36.22Q38.79 37.16 38.79 38.31Q38.79 40.06 40.12 41.24Q41.46 42.41 44.02 42.41Q46.56 42.41 48.54 41.30Q50.51 40.19 51.44 38.26Q52.15 36.77 52.15 33.86L52.15 32.25ZM63.40 45.26L63.40 19.34L67.36 19.34L67.36 23.02Q70.21 18.75 75.61 18.75Q77.95 18.75 79.92 19.59Q81.88 20.43 82.86 21.80Q83.84 23.17 84.23 25.05Q84.47 26.27 84.47 29.32L84.47 45.26L80.08 45.26L80.08 29.49Q80.08 26.81 79.57 25.48Q79.05 24.15 77.75 23.35Q76.44 22.56 74.68 22.56Q71.88 22.56 69.84 24.34Q67.80 26.12 67.80 31.10L67.80 45.26L63.40 45.26ZM89.58 32.30Q89.58 25.10 93.58 21.63Q96.92 18.75 101.73 18.75Q107.08 18.75 110.47 22.25Q113.87 25.76 113.87 31.93Q113.87 36.94 112.37 39.81Q110.86 42.68 108.00 44.26Q105.13 45.85 101.73 45.85Q96.29 45.85 92.93 42.36Q89.58 38.87 89.58 32.30M94.09 32.30Q94.09 37.28 96.26 39.76Q98.44 42.24 101.73 42.24Q105.00 42.24 107.18 39.75Q109.35 37.26 109.35 32.15Q109.35 27.34 107.17 24.87Q104.98 22.39 101.73 22.39Q98.44 22.39 96.26 24.85Q94.09 27.32 94.09 32.30ZM119.04 14.53L119.04 9.47L123.44 9.47L123.44 14.53L119.04 14.53M119.04 45.26L119.04 19.34L123.44 19.34L123.44 45.26L119.04 45.26ZM130.13 45.26L130.13 19.34L134.06 19.34L134.06 22.97Q135.28 21.07 137.30 19.91Q139.33 18.75 141.92 18.75Q144.80 18.75 146.64 19.95Q148.49 21.14 149.24 23.29Q152.32 18.75 157.25 18.75Q161.11 18.75 163.18 20.89Q165.26 23.02 165.26 27.47L165.26 45.26L160.89 45.26L160.89 28.93Q160.89 26.29 160.46 25.13Q160.03 23.97 158.91 23.27Q157.79 22.56 156.27 22.56Q153.54 22.56 151.73 24.38Q149.93 26.20 149.93 30.20L149.93 45.26L145.53 45.26L145.53 28.42Q145.53 25.49 144.46 24.02Q143.38 22.56 140.94 22.56Q139.09 22.56 137.51 23.54Q135.94 24.51 135.23 26.39Q134.52 28.27 134.52 31.81L134.52 45.26L130.13 45.26ZM171.78 45.26L171.78 19.34L175.71 19.34L175.71 22.97Q176.93 21.07 178.96 19.91Q180.98 18.75 183.57 18.75Q186.45 18.75 188.29 19.95Q190.14 21.14 190.89 23.29Q193.97 18.75 198.90 18.75Q202.76 18.75 204.83 20.89Q206.91 23.02 206.91 27.47L206.91 45.26L202.54 45.26L202.54 28.93Q202.54 26.29 202.11 25.13Q201.68 23.97 200.56 23.27Q199.44 22.56 197.92 22.56Q195.19 22.56 193.38 24.38Q191.58 26.20 191.58 30.20L191.58 45.26L187.18 45.26L187.18 28.42Q187.18 25.49 186.11 24.02Q185.03 22.56 182.59 22.56Q180.74 22.56 179.16 23.54Q177.59 24.51 176.88 26.39Q176.17 28.27 176.17 31.81L176.17 45.26L171.78 45.26ZM230.42 45.26L230.42 41.46Q227.39 45.85 222.19 45.85Q219.90 45.85 217.91 44.97Q215.92 44.09 214.95 42.76Q213.99 41.43 213.60 39.50Q213.33 38.21 213.33 35.40L213.33 19.34L217.72 19.34L217.72 33.72Q217.72 37.16 217.99 38.35Q218.41 40.09 219.75 41.08Q221.09 42.07 223.07 42.07Q225.05 42.07 226.78 41.05Q228.52 40.04 229.24 38.29Q229.96 36.55 229.96 33.23L229.96 19.34L234.35 19.34L234.35 45.26L230.42 45.26ZM241.24 45.26L241.24 19.34L245.19 19.34L245.19 23.02Q248.05 18.75 253.44 18.75Q255.79 18.75 257.75 19.59Q259.72 20.43 260.69 21.80Q261.67 23.17 262.06 25.05Q262.30 26.27 262.30 29.32L262.30 45.26L257.91 45.26L257.91 29.49Q257.91 26.81 257.40 25.48Q256.88 24.15 255.58 23.35Q254.27 22.56 252.51 22.56Q249.71 22.56 247.67 24.34Q245.63 26.12 245.63 31.10L245.63 45.26L241.24 45.26ZM267.41 32.30Q267.41 25.10 271.41 21.63Q274.76 18.75 279.57 18.75Q284.91 18.75 288.31 22.25Q291.70 25.76 291.70 31.93Q291.70 36.94 290.20 39.81Q288.70 42.68 285.83 44.26Q282.96 45.85 279.57 45.85Q274.12 45.85 270.76 42.36Q267.41 38.87 267.41 32.30M271.92 32.30Q271.92 37.28 274.10 39.76Q276.27 42.24 279.57 42.24Q282.84 42.24 285.01 39.75Q287.18 37.26 287.18 32.15Q287.18 27.34 285.00 24.87Q282.81 22.39 279.57 22.39Q276.27 22.39 274.10 24.85Q271.92 27.32 271.92 32.30ZM300.90 45.26L296.83 45.26L296.83 9.47L301.22 9.47L301.22 22.24Q304.00 18.75 308.33 18.75Q310.72 18.75 312.85 19.71Q314.99 20.68 316.37 22.42Q317.75 24.17 318.53 26.64Q319.31 29.10 319.31 31.91Q319.31 38.57 316.02 42.21Q312.72 45.85 308.11 45.85Q303.52 45.85 300.90 42.02L300.90 45.26M300.85 32.10Q300.85 36.77 302.12 38.84Q304.20 42.24 307.74 42.24Q310.62 42.24 312.72 39.73Q314.82 37.23 314.82 32.28Q314.82 27.20 312.81 24.78Q310.79 22.36 307.93 22.36Q305.05 22.36 302.95 24.87Q300.85 27.37 300.85 32.10ZM324.68 14.53L324.68 9.47L329.08 9.47L329.08 14.53L324.68 14.53M324.68 45.26L324.68 19.34L329.08 19.34L329.08 45.26L324.68 45.26ZM334.13 32.30Q334.13 25.10 338.13 21.63Q341.48 18.75 346.29 18.75Q351.64 18.75 355.03 22.25Q358.42 25.76 358.42 31.93Q358.42 36.94 356.92 39.81Q355.42 42.68 352.55 44.26Q349.68 45.85 346.29 45.85Q340.84 45.85 337.49 42.36Q334.13 38.87 334.13 32.30M338.65 32.30Q338.65 37.28 340.82 39.76Q342.99 42.24 346.29 42.24Q349.56 42.24 351.73 39.75Q353.91 37.26 353.91 32.15Q353.91 27.34 351.72 24.87Q349.54 22.39 346.29 22.39Q342.99 22.39 340.82 24.85Q338.65 27.32 338.65 32.30ZM373.17 41.33L373.80 45.21Q371.95 45.61 370.48 45.61Q368.09 45.61 366.77 44.85Q365.45 44.09 364.92 42.86Q364.38 41.63 364.38 37.67L364.38 22.75L361.16 22.75L361.16 19.34L364.38 19.34L364.38 12.92L368.75 10.28L368.75 19.34L373.17 19.34L373.17 22.75L368.75 22.75L368.75 37.92Q368.75 39.79 368.98 40.33Q369.21 40.87 369.74 41.19Q370.26 41.50 371.24 41.50Q371.97 41.50 373.17 41.33ZM395.21 36.91L399.76 37.48Q398.68 41.46 395.78 43.65Q392.87 45.85 388.35 45.85Q382.67 45.85 379.33 42.35Q376.00 38.84 376.00 32.52Q376.00 25.98 379.37 22.36Q382.74 18.75 388.11 18.75Q393.31 18.75 396.61 22.29Q399.90 25.83 399.90 32.25Q399.90 32.64 399.88 33.42L380.54 33.42Q380.79 37.70 382.96 39.97Q385.13 42.24 388.38 42.24Q390.80 42.24 392.50 40.97Q394.21 39.70 395.21 36.91M380.79 29.81L395.26 29.81Q394.97 26.54 393.60 24.90Q391.50 22.36 388.16 22.36Q385.13 22.36 383.07 24.39Q381.01 26.42 380.79 29.81ZM422.19 35.77L426.51 36.33Q425.81 40.80 422.89 43.32Q419.97 45.85 415.72 45.85Q410.40 45.85 407.17 42.37Q403.93 38.89 403.93 32.40Q403.93 28.20 405.32 25.05Q406.71 21.90 409.56 20.32Q412.40 18.75 415.75 18.75Q419.97 18.75 422.66 20.89Q425.34 23.02 426.10 26.95L421.83 27.61Q421.22 25 419.67 23.68Q418.12 22.36 415.92 22.36Q412.60 22.36 410.52 24.74Q408.45 27.12 408.45 32.28Q408.45 37.50 410.45 39.87Q412.45 42.24 415.67 42.24Q418.26 42.24 420.00 40.65Q421.73 39.06 422.19 35.77ZM430.27 45.26L430.27 9.47L434.67 9.47L434.67 22.31Q437.74 18.75 442.43 18.75Q445.31 18.75 447.44 19.89Q449.56 21.02 450.48 23.02Q451.39 25.02 451.39 28.83L451.39 45.26L447.00 45.26L447.00 28.83Q447.00 25.54 445.57 24.04Q444.14 22.53 441.53 22.53Q439.58 22.53 437.85 23.55Q436.13 24.56 435.40 26.29Q434.67 28.03 434.67 31.08L434.67 45.26L430.27 45.26ZM458.08 45.26L458.08 19.34L462.04 19.34L462.04 23.02Q464.89 18.75 470.29 18.75Q472.63 18.75 474.60 19.59Q476.56 20.43 477.54 21.80Q478.52 23.17 478.91 25.05Q479.15 26.27 479.15 29.32L479.15 45.26L474.76 45.26L474.76 29.49Q474.76 26.81 474.24 25.48Q473.73 24.15 472.42 23.35Q471.12 22.56 469.36 22.56Q466.55 22.56 464.51 24.34Q462.48 26.12 462.48 31.10L462.48 45.26L458.08 45.26ZM484.25 32.30Q484.25 25.10 488.26 21.63Q491.60 18.75 496.41 18.75Q501.76 18.75 505.15 22.25Q508.54 25.76 508.54 31.93Q508.54 36.94 507.04 39.81Q505.54 42.68 502.67 44.26Q499.80 45.85 496.41 45.85Q490.97 45.85 487.61 42.36Q484.25 38.87 484.25 32.30M488.77 32.30Q488.77 37.28 490.94 39.76Q493.12 42.24 496.41 42.24Q499.68 42.24 501.86 39.75Q504.03 37.26 504.03 32.15Q504.03 27.34 501.84 24.87Q499.66 22.39 496.41 22.39Q493.12 22.39 490.94 24.85Q488.77 27.32 488.77 32.30ZM513.70 45.26L513.70 19.34L517.63 19.34L517.63 22.97Q518.85 21.07 520.87 19.91Q522.90 18.75 525.49 18.75Q528.37 18.75 530.21 19.95Q532.06 21.14 532.81 23.29Q535.89 18.75 540.82 18.75Q544.68 18.75 546.75 20.89Q548.83 23.02 548.83 27.47L548.83 45.26L544.46 45.26L544.46 28.93Q544.46 26.29 544.03 25.13Q543.60 23.97 542.48 23.27Q541.36 22.56 539.84 22.56Q537.11 22.56 535.30 24.38Q533.50 26.20 533.50 30.20L533.50 45.26L529.10 45.26L529.10 28.42Q529.10 25.49 528.03 24.02Q526.95 22.56 524.51 22.56Q522.66 22.56 521.08 23.54Q519.51 24.51 518.80 26.39Q518.09 28.27 518.09 31.81L518.09 45.26L513.70 45.26ZM573.10 36.91L577.64 37.48Q576.56 41.46 573.66 43.65Q570.75 45.85 566.24 45.85Q560.55 45.85 557.21 42.35Q553.88 38.84 553.88 32.52Q553.88 25.98 557.25 22.36Q560.62 18.75 565.99 18.75Q571.19 18.75 574.49 22.29Q577.78 25.83 577.78 32.25Q577.78 32.64 577.76 33.42L558.42 33.42Q558.67 37.70 560.84 39.97Q563.01 42.24 566.26 42.24Q568.68 42.24 570.39 40.97Q572.09 39.70 573.10 36.91M558.67 29.81L573.14 29.81Q572.85 26.54 571.48 24.90Q569.38 22.36 566.04 22.36Q563.01 22.36 560.95 24.39Q558.89 26.42 558.67 29.81ZM599.98 45.26L599.98 41.99Q597.51 45.85 592.72 45.85Q589.62 45.85 587.02 44.14Q584.42 42.43 583.00 39.37Q581.57 36.30 581.57 32.32Q581.57 28.44 582.86 25.28Q584.16 22.12 586.74 20.43Q589.33 18.75 592.53 18.75Q594.87 18.75 596.70 19.74Q598.54 20.73 599.68 22.31L599.68 9.47L604.05 9.47L604.05 45.26L599.98 45.26M586.08 32.32Q586.08 37.30 588.18 39.77Q590.28 42.24 593.14 42.24Q596.02 42.24 598.03 39.88Q600.05 37.52 600.05 32.69Q600.05 27.37 598.00 24.88Q595.95 22.39 592.94 22.39Q590.01 22.39 588.05 24.78Q586.08 27.17 586.08 32.32ZM610.99 14.53L610.99 9.47L615.38 9.47L615.38 14.53L610.99 14.53M610.99 45.26L610.99 19.34L615.38 19.34L615.38 45.26L610.99 45.26ZM638.99 35.77L643.31 36.33Q642.60 40.80 639.69 43.32Q636.77 45.85 632.52 45.85Q627.20 45.85 623.96 42.37Q620.73 38.89 620.73 32.40Q620.73 28.20 622.12 25.05Q623.51 21.90 626.35 20.32Q629.20 18.75 632.54 18.75Q636.77 18.75 639.45 20.89Q642.14 23.02 642.90 26.95L638.62 27.61Q638.01 25 636.46 23.68Q634.91 22.36 632.71 22.36Q629.39 22.36 627.32 24.74Q625.24 27.12 625.24 32.28Q625.24 37.50 627.25 39.87Q629.25 42.24 632.47 42.24Q635.06 42.24 636.79 40.65Q638.53 39.06 638.99 35.77ZM647.09 14.53L647.09 9.47L651.49 9.47L651.49 14.53L647.09 14.53M647.09 45.26L647.09 19.34L651.49 19.34L651.49 45.26L647.09 45.26ZM658.18 45.26L658.18 19.34L662.13 19.34L662.13 23.02Q664.99 18.75 670.39 18.75Q672.73 18.75 674.69 19.59Q676.66 20.43 677.64 21.80Q678.61 23.17 679.00 25.05Q679.25 26.27 679.25 29.32L679.25 45.26L674.85 45.26L674.85 29.49Q674.85 26.81 674.34 25.48Q673.83 24.15 672.52 23.35Q671.22 22.56 669.46 22.56Q666.65 22.56 664.61 24.34Q662.57 26.12 662.57 31.10L662.57 45.26L658.18 45.26ZM703.74 36.91L708.28 37.48Q707.20 41.46 704.30 43.65Q701.39 45.85 696.88 45.85Q691.19 45.85 687.85 42.35Q684.52 38.84 684.52 32.52Q684.52 25.98 687.89 22.36Q691.26 18.75 696.63 18.75Q701.83 18.75 705.13 22.29Q708.42 25.83 708.42 32.25Q708.42 32.64 708.40 33.42L689.06 33.42Q689.31 37.70 691.48 39.97Q693.65 42.24 696.90 42.24Q699.32 42.24 701.03 40.97Q702.73 39.70 703.74 36.91M689.31 29.81L703.78 29.81Q703.49 26.54 702.12 24.90Q700.02 22.36 696.68 22.36Q693.65 22.36 691.59 24.39Q689.53 26.42 689.31 29.81ZM736.08 55.79Q732.45 51.20 729.93 45.04Q727.42 38.89 727.42 32.30Q727.42 26.49 729.30 21.17Q731.49 14.99 736.08 8.86L739.23 8.86Q736.28 13.94 735.33 16.11Q733.84 19.48 732.98 23.14Q731.93 27.71 731.93 32.32Q731.93 44.07 739.23 55.79L736.08 55.79ZM744.85 45.26L744.85 9.47L749.71 9.47L768.51 37.57L768.51 9.47L773.05 9.47L773.05 45.26L768.19 45.26L749.39 17.14L749.39 45.26L744.85 45.26ZM780.47 14.53L780.47 9.47L784.86 9.47L784.86 14.53L780.47 14.53M780.47 45.26L780.47 19.34L784.86 19.34L784.86 45.26L780.47 45.26ZM791.92 45.26L791.92 9.47L805.35 9.47Q809.45 9.47 811.93 10.56Q814.40 11.65 815.81 13.90Q817.21 16.16 817.21 18.63Q817.21 20.92 815.97 22.95Q814.72 24.98 812.21 26.22Q815.45 27.17 817.20 29.47Q818.95 31.76 818.95 34.89Q818.95 37.40 817.88 39.56Q816.82 41.72 815.26 42.90Q813.70 44.07 811.34 44.67Q808.98 45.26 805.57 45.26L791.92 45.26M796.66 24.51L804.39 24.51Q807.54 24.51 808.91 24.10Q810.72 23.56 811.63 22.31Q812.55 21.07 812.55 19.19Q812.55 17.41 811.69 16.05Q810.84 14.70 809.25 14.20Q807.67 13.70 803.81 13.70L796.66 13.70L796.66 24.51M796.66 41.04L805.57 41.04Q807.86 41.04 808.79 40.87Q810.42 40.58 811.52 39.89Q812.62 39.21 813.33 37.90Q814.04 36.60 814.04 34.89Q814.04 32.89 813.01 31.41Q811.99 29.93 810.17 29.33Q808.35 28.74 804.93 28.74L796.66 28.74L796.66 41.04ZM834.57 45.26L834.57 13.70L822.78 13.70L822.78 9.47L851.15 9.47L851.15 13.70L839.31 13.70L839.31 45.26L834.57 45.26ZM855.86 45.26L855.86 9.47L862.99 9.47L871.46 34.81Q872.63 38.35 873.17 40.11Q873.78 38.16 875.07 34.38L883.64 9.47L890.01 9.47L890.01 45.26L885.45 45.26L885.45 15.31L875.05 45.26L870.78 45.26L860.42 14.79L860.42 45.26L855.86 45.26ZM899.98 55.79L896.83 55.79Q904.13 44.07 904.13 32.32Q904.13 27.73 903.08 23.22Q902.25 19.56 900.76 16.19Q899.80 13.99 896.83 8.86L899.98 8.86Q904.57 14.99 906.76 21.17Q908.64 26.49 908.64 32.30Q908.64 38.89 906.12 45.04Q903.59 51.20 899.98 55.79Z"/></g></g></svg>