<svg width="50" height="48" viewBox="0 0 50 48" fill="none" xmlns="http://www.w3.org/2000/svg">
<path d="M24.7055 0.390381C22.8082 0.390381 21.2118 1.73653 20.8207 3.52147L7.25046 3.52147V1.62057C7.24956 1.39514 7.15915 1.1793 6.99913 1.02052C6.8391 0.861738 6.62256 0.773021 6.39713 0.773881L0.906941 0.773881C0.682373 0.774341 0.467111 0.86364 0.308162 1.02228C0.149214 1.18092 0.059493 1.396 0.0585937 1.62057L0.0585937 7.12404C0.059493 7.34861 0.149214 7.5637 0.308162 7.72233C0.467111 7.88097 0.682373 7.97027 0.906941 7.97073L6.39713 7.97073C6.62256 7.97159 6.8391 7.88287 6.99913 7.72409C7.15915 7.56531 7.24956 7.34947 7.25046 7.12404V5.22148L16.7815 5.22148C11.5125 7.61051 7.52809 12.3142 6.10992 18.0513C4.25031 18.3834 2.8261 20.0238 2.8261 21.976C2.8261 24.1652 4.61592 25.9604 6.80387 25.9604C8.99184 25.9604 10.7833 24.1652 10.7833 21.976C10.7833 20.1479 9.53383 18.5938 7.84812 18.131C9.52702 11.872 14.57 7.01889 20.9336 5.62491C21.4625 7.20437 22.9558 8.35257 24.7055 8.35257C26.4552 8.35257 27.9503 7.20443 28.4791 5.62491C34.8445 7.01751 39.8857 11.8705 41.5646 18.131C39.8781 18.5933 38.6294 20.1474 38.6294 21.976C38.6294 24.1652 40.4192 25.9604 42.6072 25.9604C44.7951 25.9604 46.5866 24.1652 46.5866 21.976C46.5866 20.0232 45.1615 18.3827 43.3011 18.0513C41.8828 12.3139 37.8989 7.6104 32.6295 5.22148L42.1622 5.22148V7.12404C42.1631 7.34947 42.2535 7.56532 42.4136 7.7241C42.5736 7.88288 42.7901 7.97159 43.0156 7.97073L48.5058 7.97073C48.7312 7.97159 48.9477 7.88288 49.1078 7.7241C49.2678 7.56532 49.3582 7.34947 49.3591 7.12404V1.62057C49.3582 1.39514 49.2678 1.1793 49.1078 1.02051C48.9477 0.861734 48.7312 0.773019 48.5058 0.773881L43.0156 0.773881C42.7901 0.773019 42.5736 0.861734 42.4136 1.02051C42.2535 1.1793 42.1631 1.39514 42.1622 1.62057V3.52147L28.5936 3.52147C28.2026 1.73635 26.6029 0.390381 24.7055 0.390381ZM24.7055 2.08542C25.9733 2.08542 26.9833 3.0962 26.9833 4.36816C26.9833 4.40404 26.9832 4.44061 26.9816 4.47607C26.9805 4.47994 26.9794 4.48381 26.9784 4.4877C26.9721 4.52891 26.9689 4.57052 26.9688 4.61221C26.8493 5.76731 25.8899 6.65256 24.7043 6.65256C23.5313 6.65256 22.5806 5.78575 22.4448 4.64873C22.4456 4.59477 22.4413 4.54085 22.432 4.4877C22.4309 4.48327 22.4298 4.47884 22.4287 4.47443C22.4272 4.43951 22.4255 4.40351 22.4255 4.36818C22.4255 3.09623 23.4378 2.08542 24.7055 2.08542ZM1.75363 2.4739L5.54878 2.4739V6.27071L1.75363 6.27071V2.4739ZM43.8623 2.4739L47.6591 2.4739V6.27071L43.8623 6.27071V2.4739ZM24.7055 11.0138C24.6303 11.015 24.5555 11.0262 24.4832 11.047C24.4715 11.0501 24.4598 11.0534 24.4482 11.057C24.3818 11.0784 24.3182 11.108 24.259 11.145C24.242 11.156 24.2254 11.1676 24.2092 11.1798C24.1528 11.2199 24.1016 11.2668 24.0566 11.3193C24.0555 11.3198 24.0544 11.3204 24.0534 11.321L11.6984 26.2675C11.6037 26.3807 11.5401 26.5167 11.5139 26.6619C11.4877 26.8072 11.4998 26.9567 11.5489 27.0959L16.8598 41.9893C15.8555 42.4693 15.1565 43.502 15.1565 44.6838C15.1565 46.3156 16.4888 47.6638 18.1183 47.6638L31.295 47.6638C32.9245 47.6638 34.2568 46.3156 34.2568 44.6838C34.2568 43.5012 33.5572 42.4673 32.5518 41.9877L37.8643 27.0959C37.9141 26.9571 37.927 26.8078 37.9017 26.6626C37.8763 26.5173 37.8136 26.3812 37.7198 26.2675L25.4144 11.3907C25.3364 11.2743 25.2309 11.179 25.1073 11.1133C24.9836 11.0475 24.8456 11.0134 24.7055 11.0138ZM23.8588 14.2196V24.2487C22.0239 24.6439 20.6398 26.2942 20.6398 28.2497C20.6398 30.4967 22.4664 32.347 24.7055 32.347C26.9447 32.347 28.7713 30.4967 28.7713 28.2497C28.7713 26.2962 27.391 24.6477 25.5588 24.2504V14.2296L36.101 26.9764L30.8481 41.7038L18.5629 41.7038L13.3118 26.9697L23.8588 14.2196ZM6.80387 19.6916C8.07162 19.6916 9.08163 20.704 9.08163 21.976C9.08163 23.2479 8.07162 24.2587 6.80387 24.2587C5.53613 24.2587 4.52612 23.2479 4.52612 21.976C4.52612 20.704 5.53613 19.6916 6.80387 19.6916ZM42.6005 19.6916C42.6027 19.6916 42.6048 19.6916 42.6069 19.6916C43.8747 19.6916 44.8847 20.704 44.8847 21.976C44.8847 23.2479 43.8747 24.2587 42.6069 24.2587C41.3392 24.2587 40.3292 23.2479 40.3292 21.976C40.3292 20.7062 41.3359 19.6951 42.6005 19.6916ZM24.7055 25.8591C26.0176 25.8591 27.0713 26.9133 27.0713 28.2497C27.0713 29.5862 26.0176 30.647 24.7055 30.647C23.3935 30.647 22.3398 29.5862 22.3398 28.2497C22.3398 26.9133 23.3935 25.8591 24.7055 25.8591ZM18.118 43.4038L31.2947 43.4038C32.0035 43.4038 32.5565 43.9561 32.5565 44.6838C32.5565 45.4114 32.0035 45.9638 31.2947 45.9638L18.118 45.9638C17.4092 45.9638 16.8562 45.4114 16.8562 44.6838C16.8562 43.9561 17.4092 43.4038 18.118 43.4038Z" fill="#9772E0"/>
</svg>
